<mxfile host="Electron" modified="2024-08-11T12:01:19.270Z" agent="Mozilla/5.0 (Windows NT 10.0; Win64; x64) AppleWebKit/537.36 (KHTML, like Gecko) draw.io/21.2.1 Chrome/112.0.5615.87 Electron/24.1.2 Safari/537.36" etag="yIAdlaK8Q5sNxzAFkLdJ" version="21.2.1" type="device">
  <diagram name="第 1 页" id="4dxPXtrnd0cb0CEYUWjk">
    <mxGraphModel dx="10711" dy="4045" grid="1" gridSize="10" guides="1" tooltips="1" connect="1" arrows="1" fold="1" page="1" pageScale="1" pageWidth="4681" pageHeight="3300" math="0" shadow="0">
      <root>
        <mxCell id="0" />
        <mxCell id="1" parent="0" />
        <mxCell id="5C9xvMvv8BL5N6FmCVYK-172" value="" style="rounded=0;whiteSpace=wrap;html=1;strokeColor=default;dashed=1;dashPattern=1 1;fillColor=none;movable=0;resizable=0;rotatable=0;deletable=0;editable=0;locked=1;connectable=0;" parent="1" vertex="1">
          <mxGeometry x="2410" y="1960" width="1750" height="1080" as="geometry" />
        </mxCell>
        <mxCell id="5C9xvMvv8BL5N6FmCVYK-165" value="" style="rounded=0;whiteSpace=wrap;html=1;fillColor=none;dashed=1;dashPattern=1 1;movable=0;resizable=0;rotatable=0;deletable=0;editable=0;locked=1;connectable=0;" parent="1" vertex="1">
          <mxGeometry x="-90" y="1940" width="1470" height="1080" as="geometry" />
        </mxCell>
        <mxCell id="mOBEmlkJbgyievoEXcgK-1" value="&lt;font style=&quot;font-size: 27px;&quot;&gt;CPU&lt;br&gt;Control&lt;/font&gt;" style="rounded=0;whiteSpace=wrap;html=1;fontStyle=1;fontSize=17;movable=1;resizable=1;rotatable=1;deletable=1;editable=1;locked=0;connectable=1;" parent="1" vertex="1">
          <mxGeometry x="2720" y="2060" width="120" height="710" as="geometry" />
        </mxCell>
        <mxCell id="mOBEmlkJbgyievoEXcgK-2" value="&lt;font style=&quot;font-size: 18px;&quot;&gt;CPU&lt;br&gt;IMEM&lt;/font&gt;" style="rounded=0;whiteSpace=wrap;html=1;fontStyle=1;fontSize=12;movable=1;resizable=1;rotatable=1;deletable=1;editable=1;locked=0;connectable=1;" parent="1" vertex="1">
          <mxGeometry x="4060" y="2070" width="80" height="80" as="geometry" />
        </mxCell>
        <mxCell id="mOBEmlkJbgyievoEXcgK-3" value="&lt;font style=&quot;font-size: 18px;&quot;&gt;CPU&lt;br&gt;DMEM&lt;/font&gt;" style="rounded=0;whiteSpace=wrap;html=1;fontStyle=1;fontSize=12;movable=1;resizable=1;rotatable=1;deletable=1;editable=1;locked=0;connectable=1;" parent="1" vertex="1">
          <mxGeometry x="4060" y="2200" width="80" height="80" as="geometry" />
        </mxCell>
        <mxCell id="mOBEmlkJbgyievoEXcgK-10" value="&lt;font style=&quot;font-size: 24px;&quot;&gt;CPU&lt;br&gt;Core&lt;/font&gt;" style="rounded=0;whiteSpace=wrap;html=1;fontStyle=1;fontSize=12;movable=1;resizable=1;rotatable=1;deletable=1;editable=1;locked=0;connectable=1;" parent="1" vertex="1">
          <mxGeometry x="3370" y="2460" width="80" height="390" as="geometry" />
        </mxCell>
        <mxCell id="mOBEmlkJbgyievoEXcgK-12" value="" style="group;strokeColor=default;dashed=1;movable=1;resizable=1;rotatable=1;deletable=1;editable=1;locked=0;connectable=1;" parent="1" vertex="1" connectable="0">
          <mxGeometry x="2890" y="2070" width="200" height="80" as="geometry" />
        </mxCell>
        <mxCell id="mOBEmlkJbgyievoEXcgK-11" value="&lt;b&gt;CPU Ctrl IMEM BUS&lt;/b&gt;" style="text;html=1;strokeColor=none;fillColor=none;align=center;verticalAlign=middle;whiteSpace=wrap;rounded=0;movable=1;resizable=1;rotatable=1;deletable=1;editable=1;locked=0;connectable=1;" parent="mOBEmlkJbgyievoEXcgK-12" vertex="1">
          <mxGeometry x="20" y="60" width="160" height="20" as="geometry" />
        </mxCell>
        <mxCell id="mOBEmlkJbgyievoEXcgK-4" value="" style="endArrow=none;startArrow=none;html=1;rounded=0;startFill=0;endFill=0;movable=1;resizable=1;rotatable=1;deletable=1;editable=1;locked=0;connectable=1;" parent="mOBEmlkJbgyievoEXcgK-12" edge="1">
          <mxGeometry width="50" height="50" relative="1" as="geometry">
            <mxPoint y="60" as="sourcePoint" />
            <mxPoint x="200" y="60" as="targetPoint" />
          </mxGeometry>
        </mxCell>
        <mxCell id="mOBEmlkJbgyievoEXcgK-5" value="→[31:0]&lt;span style=&quot;white-space: pre;&quot;&gt; &lt;/span&gt;imem_addr&lt;br&gt;←[31:0]&lt;span style=&quot;white-space: pre;&quot;&gt; &lt;/span&gt;imem_rdata&lt;br&gt;→[31:0]&lt;span style=&quot;white-space: pre;&quot;&gt; &lt;/span&gt;imem_wdata&lt;br&gt;→[0 : 0]&lt;span style=&quot;white-space: pre;&quot;&gt; &lt;/span&gt;imem_we" style="text;html=1;strokeColor=none;fillColor=none;align=left;verticalAlign=middle;whiteSpace=wrap;rounded=0;movable=1;resizable=1;rotatable=1;deletable=1;editable=1;locked=0;connectable=1;" parent="mOBEmlkJbgyievoEXcgK-12" vertex="1">
          <mxGeometry x="40" width="120" height="60" as="geometry" />
        </mxCell>
        <mxCell id="mOBEmlkJbgyievoEXcgK-14" value="" style="group;strokeColor=default;dashed=1;movable=1;resizable=1;rotatable=1;deletable=1;editable=1;locked=0;connectable=1;" parent="1" vertex="1" connectable="0">
          <mxGeometry x="2890" y="2160" width="200" height="80" as="geometry" />
        </mxCell>
        <mxCell id="mOBEmlkJbgyievoEXcgK-13" value="&lt;b&gt;CPU Ctrl DMEM BUS&lt;/b&gt;" style="text;html=1;strokeColor=none;fillColor=none;align=center;verticalAlign=middle;whiteSpace=wrap;rounded=0;movable=1;resizable=1;rotatable=1;deletable=1;editable=1;locked=0;connectable=1;" parent="mOBEmlkJbgyievoEXcgK-14" vertex="1">
          <mxGeometry x="20" y="60" width="160" height="20" as="geometry" />
        </mxCell>
        <mxCell id="mOBEmlkJbgyievoEXcgK-8" value="" style="endArrow=none;startArrow=none;html=1;rounded=0;startFill=0;endFill=0;movable=1;resizable=1;rotatable=1;deletable=1;editable=1;locked=0;connectable=1;" parent="mOBEmlkJbgyievoEXcgK-14" edge="1">
          <mxGeometry width="50" height="50" relative="1" as="geometry">
            <mxPoint y="60" as="sourcePoint" />
            <mxPoint x="200" y="60" as="targetPoint" />
          </mxGeometry>
        </mxCell>
        <mxCell id="mOBEmlkJbgyievoEXcgK-9" value="→[31:0]&lt;span style=&quot;white-space: pre;&quot;&gt; &lt;/span&gt;dmem_addr&lt;br&gt;←[31:0]&lt;span style=&quot;white-space: pre;&quot;&gt; &lt;/span&gt;dmem_rdata&lt;br&gt;→[31:0]&lt;span style=&quot;white-space: pre;&quot;&gt; &lt;/span&gt;dmem_wdata&lt;br&gt;→[0 : 0]&lt;span style=&quot;white-space: pre;&quot;&gt; &lt;/span&gt;dmem_we" style="text;html=1;strokeColor=none;fillColor=none;align=left;verticalAlign=middle;whiteSpace=wrap;rounded=0;movable=1;resizable=1;rotatable=1;deletable=1;editable=1;locked=0;connectable=1;" parent="mOBEmlkJbgyievoEXcgK-14" vertex="1">
          <mxGeometry x="40" width="120" height="60" as="geometry" />
        </mxCell>
        <mxCell id="mOBEmlkJbgyievoEXcgK-23" value="" style="group;strokeColor=default;dashed=1;movable=1;resizable=1;rotatable=1;deletable=1;editable=1;locked=0;connectable=1;" parent="1" vertex="1" connectable="0">
          <mxGeometry x="2890" y="2503" width="200" height="57" as="geometry" />
        </mxCell>
        <mxCell id="mOBEmlkJbgyievoEXcgK-16" value="&lt;b&gt;CPU Ctrl Control BUS&lt;/b&gt;" style="text;html=1;strokeColor=none;fillColor=none;align=center;verticalAlign=middle;whiteSpace=wrap;rounded=0;movable=1;resizable=1;rotatable=1;deletable=1;editable=1;locked=0;connectable=1;" parent="mOBEmlkJbgyievoEXcgK-23" vertex="1">
          <mxGeometry x="20" y="37" width="160" height="20" as="geometry" />
        </mxCell>
        <mxCell id="mOBEmlkJbgyievoEXcgK-17" value="" style="endArrow=none;startArrow=none;html=1;rounded=0;startFill=0;endFill=0;movable=1;resizable=1;rotatable=1;deletable=1;editable=1;locked=0;connectable=1;" parent="mOBEmlkJbgyievoEXcgK-23" edge="1">
          <mxGeometry width="50" height="50" relative="1" as="geometry">
            <mxPoint y="37" as="sourcePoint" />
            <mxPoint x="200" y="37" as="targetPoint" />
          </mxGeometry>
        </mxCell>
        <mxCell id="mOBEmlkJbgyievoEXcgK-18" value="→[0 : 0]&lt;span style=&quot;white-space: pre;&quot;&gt; &lt;/span&gt;cpu_rst&lt;br&gt;→[0 : 0]&lt;span style=&quot;white-space: pre;&quot;&gt; &lt;/span&gt;cpu_global_en" style="text;html=1;strokeColor=none;fillColor=none;align=left;verticalAlign=middle;whiteSpace=wrap;rounded=0;movable=1;resizable=1;rotatable=1;deletable=1;editable=1;locked=0;connectable=1;" parent="mOBEmlkJbgyievoEXcgK-23" vertex="1">
          <mxGeometry x="30" width="140" height="40" as="geometry" />
        </mxCell>
        <mxCell id="mOBEmlkJbgyievoEXcgK-24" value="" style="group;strokeColor=default;dashed=1;movable=1;resizable=1;rotatable=1;deletable=1;editable=1;locked=0;connectable=1;" parent="1" vertex="1" connectable="0">
          <mxGeometry x="2890" y="2670" width="200" height="80" as="geometry" />
        </mxCell>
        <mxCell id="mOBEmlkJbgyievoEXcgK-20" value="&lt;b&gt;CPU Ctrl Commit BUS&lt;/b&gt;" style="text;html=1;strokeColor=none;fillColor=none;align=center;verticalAlign=middle;whiteSpace=wrap;rounded=0;movable=1;resizable=1;rotatable=1;deletable=1;editable=1;locked=0;connectable=1;" parent="mOBEmlkJbgyievoEXcgK-24" vertex="1">
          <mxGeometry x="20" y="60" width="160" height="20" as="geometry" />
        </mxCell>
        <mxCell id="mOBEmlkJbgyievoEXcgK-21" value="" style="endArrow=none;startArrow=none;html=1;rounded=0;startFill=0;endFill=0;movable=1;resizable=1;rotatable=1;deletable=1;editable=1;locked=0;connectable=1;" parent="mOBEmlkJbgyievoEXcgK-24" edge="1">
          <mxGeometry width="50" height="50" relative="1" as="geometry">
            <mxPoint y="60" as="sourcePoint" />
            <mxPoint x="200" y="60" as="targetPoint" />
          </mxGeometry>
        </mxCell>
        <mxCell id="mOBEmlkJbgyievoEXcgK-22" value="←[0 : 0]&lt;span style=&quot;white-space: pre;&quot;&gt; &lt;/span&gt;cpu_commit_en&lt;br&gt;←[31:0]&lt;span style=&quot;white-space: pre;&quot;&gt; &lt;/span&gt;cpu_commit_pc&lt;br&gt;←[31:0]&lt;span style=&quot;white-space: pre;&quot;&gt; &lt;/span&gt;cpu_commit_inst&lt;br style=&quot;border-color: var(--border-color);&quot;&gt;←[0 : 0]&lt;span style=&quot;white-space: pre;&quot;&gt; &lt;/span&gt;cpu_commit_halt" style="text;html=1;strokeColor=none;fillColor=none;align=left;verticalAlign=middle;whiteSpace=wrap;rounded=0;movable=1;resizable=1;rotatable=1;deletable=1;editable=1;locked=0;connectable=1;" parent="mOBEmlkJbgyievoEXcgK-24" vertex="1">
          <mxGeometry x="25" width="150" height="60" as="geometry" />
        </mxCell>
        <mxCell id="mOBEmlkJbgyievoEXcgK-32" value="" style="group;movable=1;resizable=1;rotatable=1;deletable=1;editable=1;locked=0;connectable=1;" parent="1" vertex="1" connectable="0">
          <mxGeometry x="2890" y="2583" width="200" height="57" as="geometry" />
        </mxCell>
        <mxCell id="mOBEmlkJbgyievoEXcgK-25" value="" style="group;strokeColor=default;dashed=1;container=0;movable=1;resizable=1;rotatable=1;deletable=1;editable=1;locked=0;connectable=1;" parent="mOBEmlkJbgyievoEXcgK-32" vertex="1" connectable="0">
          <mxGeometry width="200" height="57" as="geometry" />
        </mxCell>
        <mxCell id="mOBEmlkJbgyievoEXcgK-26" value="&lt;b&gt;CPU Ctrl Reg BUS&lt;/b&gt;" style="text;html=1;strokeColor=none;fillColor=none;align=center;verticalAlign=middle;whiteSpace=wrap;rounded=0;container=0;movable=1;resizable=1;rotatable=1;deletable=1;editable=1;locked=0;connectable=1;" parent="mOBEmlkJbgyievoEXcgK-32" vertex="1">
          <mxGeometry x="20" y="37" width="160" height="20" as="geometry" />
        </mxCell>
        <mxCell id="mOBEmlkJbgyievoEXcgK-27" value="" style="endArrow=none;startArrow=none;html=1;rounded=0;startFill=0;endFill=0;movable=1;resizable=1;rotatable=1;deletable=1;editable=1;locked=0;connectable=1;" parent="mOBEmlkJbgyievoEXcgK-32" edge="1">
          <mxGeometry width="50" height="50" relative="1" as="geometry">
            <mxPoint y="37" as="sourcePoint" />
            <mxPoint x="200" y="37" as="targetPoint" />
          </mxGeometry>
        </mxCell>
        <mxCell id="mOBEmlkJbgyievoEXcgK-31" value="→[0 : 0]&lt;span style=&quot;white-space: pre;&quot;&gt; &lt;/span&gt;cpu_reg_ra&lt;br&gt;←[31:0]&lt;span style=&quot;white-space: pre;&quot;&gt; &lt;/span&gt;cpu_reg_rd" style="text;html=1;strokeColor=none;fillColor=none;align=left;verticalAlign=middle;whiteSpace=wrap;rounded=0;container=0;movable=1;resizable=1;rotatable=1;deletable=1;editable=1;locked=0;connectable=1;" parent="mOBEmlkJbgyievoEXcgK-32" vertex="1">
          <mxGeometry x="40" width="120" height="40" as="geometry" />
        </mxCell>
        <mxCell id="mOBEmlkJbgyievoEXcgK-34" value="" style="group;strokeColor=default;dashed=1;movable=1;resizable=1;rotatable=1;deletable=1;editable=1;locked=0;connectable=1;" parent="1" vertex="1" connectable="0">
          <mxGeometry x="3140" y="2480" width="200" height="77" as="geometry" />
        </mxCell>
        <mxCell id="mOBEmlkJbgyievoEXcgK-35" value="&lt;b&gt;CPU Control BUS&lt;/b&gt;" style="text;html=1;strokeColor=none;fillColor=none;align=center;verticalAlign=middle;whiteSpace=wrap;rounded=0;movable=1;resizable=1;rotatable=1;deletable=1;editable=1;locked=0;connectable=1;" parent="mOBEmlkJbgyievoEXcgK-34" vertex="1">
          <mxGeometry x="20" y="49.98245614035088" width="160" height="27.017543859649123" as="geometry" />
        </mxCell>
        <mxCell id="mOBEmlkJbgyievoEXcgK-36" value="" style="endArrow=none;startArrow=none;html=1;rounded=0;startFill=0;endFill=0;movable=1;resizable=1;rotatable=1;deletable=1;editable=1;locked=0;connectable=1;" parent="mOBEmlkJbgyievoEXcgK-34" edge="1">
          <mxGeometry width="50" height="50" relative="1" as="geometry">
            <mxPoint y="49.98245614035088" as="sourcePoint" />
            <mxPoint x="200" y="49.98245614035088" as="targetPoint" />
          </mxGeometry>
        </mxCell>
        <mxCell id="mOBEmlkJbgyievoEXcgK-37" value="→[0 : 0]&lt;span style=&quot;white-space: pre;&quot;&gt; &lt;/span&gt;clk&lt;br&gt;→[0 : 0]&lt;span style=&quot;white-space: pre;&quot;&gt; &lt;/span&gt;rst&lt;br&gt;→[0 : 0]&lt;span style=&quot;white-space: pre;&quot;&gt; &lt;/span&gt;global_en" style="text;html=1;strokeColor=none;fillColor=none;align=left;verticalAlign=middle;whiteSpace=wrap;rounded=0;movable=1;resizable=1;rotatable=1;deletable=1;editable=1;locked=0;connectable=1;" parent="mOBEmlkJbgyievoEXcgK-34" vertex="1">
          <mxGeometry x="50" width="110" height="54.04" as="geometry" />
        </mxCell>
        <mxCell id="mOBEmlkJbgyievoEXcgK-38" value="" style="endArrow=none;html=1;rounded=0;endFill=0;movable=1;resizable=1;rotatable=1;deletable=1;editable=1;locked=0;connectable=1;" parent="1" edge="1">
          <mxGeometry width="50" height="50" relative="1" as="geometry">
            <mxPoint x="3090" y="2540" as="sourcePoint" />
            <mxPoint x="3140" y="2530" as="targetPoint" />
            <Array as="points">
              <mxPoint x="3120" y="2540" />
              <mxPoint x="3120" y="2530" />
            </Array>
          </mxGeometry>
        </mxCell>
        <mxCell id="mOBEmlkJbgyievoEXcgK-40" value="" style="endArrow=none;html=1;rounded=0;exitX=1;exitY=0.5;exitDx=0;exitDy=0;movable=1;resizable=1;rotatable=1;deletable=1;editable=1;locked=0;connectable=1;" parent="1" source="SzN8-PFb_mEgps3vLhe2-63" edge="1">
          <mxGeometry width="50" height="50" relative="1" as="geometry">
            <mxPoint x="3100" y="2480" as="sourcePoint" />
            <mxPoint x="3120" y="2530" as="targetPoint" />
            <Array as="points">
              <mxPoint x="3120" y="2480" />
            </Array>
          </mxGeometry>
        </mxCell>
        <mxCell id="SzN8-PFb_mEgps3vLhe2-5" value="" style="group;strokeColor=default;dashed=1;movable=1;resizable=1;rotatable=1;deletable=1;editable=1;locked=0;connectable=1;" parent="1" vertex="1" connectable="0">
          <mxGeometry x="3140" y="2660" width="200" height="170" as="geometry" />
        </mxCell>
        <mxCell id="SzN8-PFb_mEgps3vLhe2-2" value="&lt;b&gt;CPU Commit BUS&lt;/b&gt;" style="text;html=1;strokeColor=none;fillColor=none;align=center;verticalAlign=middle;whiteSpace=wrap;rounded=0;movable=1;resizable=1;rotatable=1;deletable=1;editable=1;locked=0;connectable=1;" parent="SzN8-PFb_mEgps3vLhe2-5" vertex="1">
          <mxGeometry x="20" y="150" width="160" height="20" as="geometry" />
        </mxCell>
        <mxCell id="SzN8-PFb_mEgps3vLhe2-3" value="" style="endArrow=none;startArrow=none;html=1;rounded=0;startFill=0;endFill=0;movable=1;resizable=1;rotatable=1;deletable=1;editable=1;locked=0;connectable=1;" parent="SzN8-PFb_mEgps3vLhe2-5" edge="1">
          <mxGeometry width="50" height="50" relative="1" as="geometry">
            <mxPoint y="150" as="sourcePoint" />
            <mxPoint x="200" y="150" as="targetPoint" />
          </mxGeometry>
        </mxCell>
        <mxCell id="SzN8-PFb_mEgps3vLhe2-4" value="←[0 : 0]&lt;span style=&quot;&quot;&gt; &lt;span style=&quot;&quot;&gt; &lt;/span&gt;&lt;/span&gt;commit_en&lt;br&gt;←[31:0]&lt;span style=&quot;&quot;&gt; &lt;span style=&quot;&quot;&gt; &lt;/span&gt;&lt;/span&gt;commit_pc&lt;br&gt;←[31:0]&lt;span style=&quot;&quot;&gt; &lt;span style=&quot;&quot;&gt; &lt;/span&gt;&lt;/span&gt;commit_inst&lt;br style=&quot;border-color: var(--border-color);&quot;&gt;←[0 : 0]&lt;span style=&quot;&quot;&gt; &lt;span style=&quot;&quot;&gt; &lt;/span&gt;&lt;/span&gt;commit_halt&lt;br&gt;←[0 : 0]&lt;span style=&quot;&quot;&gt; &lt;/span&gt;&lt;span style=&quot;background-color: initial;&quot;&gt;commit_reg_we&lt;/span&gt;&lt;br&gt;←[4 : 0]&amp;nbsp;&lt;span style=&quot;background-color: initial;&quot;&gt;commit_reg_wa&lt;/span&gt;&lt;br&gt;←[31:0]&amp;nbsp;&lt;span style=&quot;background-color: initial;&quot;&gt;commit_reg_wd&lt;/span&gt;&lt;br&gt;←[0 : 0]&amp;nbsp;&lt;span style=&quot;background-color: initial;&quot;&gt;commit_dmem_we&lt;/span&gt;&lt;br&gt;←[4 : 0]&amp;nbsp;&lt;span style=&quot;background-color: initial;&quot;&gt;commit_dmem_wa&lt;/span&gt;&lt;br&gt;←[31:0]&amp;nbsp;&lt;span style=&quot;background-color: initial;&quot;&gt;commit_dmem_wd&lt;/span&gt;" style="text;html=1;strokeColor=none;fillColor=none;align=left;verticalAlign=middle;whiteSpace=wrap;rounded=0;movable=1;resizable=1;rotatable=1;deletable=1;editable=1;locked=0;connectable=1;" parent="SzN8-PFb_mEgps3vLhe2-5" vertex="1">
          <mxGeometry x="25" width="150" height="150" as="geometry" />
        </mxCell>
        <mxCell id="SzN8-PFb_mEgps3vLhe2-6" value="" style="endArrow=none;html=1;rounded=0;startArrow=none;startFill=0;movable=1;resizable=1;rotatable=1;deletable=1;editable=1;locked=0;connectable=1;" parent="1" edge="1">
          <mxGeometry width="50" height="50" relative="1" as="geometry">
            <mxPoint x="3090" y="2730" as="sourcePoint" />
            <mxPoint x="3140" y="2810" as="targetPoint" />
            <Array as="points">
              <mxPoint x="3120" y="2730" />
              <mxPoint x="3120" y="2810" />
            </Array>
          </mxGeometry>
        </mxCell>
        <mxCell id="SzN8-PFb_mEgps3vLhe2-7" value="" style="endArrow=none;startArrow=none;html=1;rounded=0;startFill=0;endFill=0;movable=1;resizable=1;rotatable=1;deletable=1;editable=1;locked=0;connectable=1;" parent="1" edge="1">
          <mxGeometry width="50" height="50" relative="1" as="geometry">
            <mxPoint x="3090" y="2620" as="sourcePoint" />
            <mxPoint x="3140" y="2620" as="targetPoint" />
          </mxGeometry>
        </mxCell>
        <mxCell id="SzN8-PFb_mEgps3vLhe2-8" value="" style="endArrow=none;html=1;rounded=0;endFill=0;movable=1;resizable=1;rotatable=1;deletable=1;editable=1;locked=0;connectable=1;" parent="1" edge="1">
          <mxGeometry width="50" height="50" relative="1" as="geometry">
            <mxPoint x="3120" y="2810" as="sourcePoint" />
            <mxPoint x="3090" y="2990" as="targetPoint" />
            <Array as="points">
              <mxPoint x="3120" y="2990" />
            </Array>
          </mxGeometry>
        </mxCell>
        <mxCell id="SzN8-PFb_mEgps3vLhe2-17" value="" style="group;dashed=1;strokeColor=#0000CC;movable=1;resizable=1;rotatable=1;deletable=1;editable=1;locked=0;connectable=1;" parent="1" vertex="1" connectable="0">
          <mxGeometry x="2890" y="2810" width="200" height="200" as="geometry" />
        </mxCell>
        <mxCell id="SzN8-PFb_mEgps3vLhe2-14" value="&lt;b&gt;For Simulation&lt;/b&gt;" style="text;html=1;strokeColor=none;fillColor=none;align=center;verticalAlign=middle;whiteSpace=wrap;rounded=0;movable=1;resizable=1;rotatable=1;deletable=1;editable=1;locked=0;connectable=1;fontColor=#0000CC;" parent="SzN8-PFb_mEgps3vLhe2-17" vertex="1">
          <mxGeometry x="20" y="180" width="160" height="20" as="geometry" />
        </mxCell>
        <mxCell id="SzN8-PFb_mEgps3vLhe2-15" value="" style="endArrow=none;startArrow=none;html=1;rounded=0;startFill=0;endFill=0;movable=1;resizable=1;rotatable=1;deletable=1;editable=1;locked=0;connectable=1;" parent="SzN8-PFb_mEgps3vLhe2-17" edge="1">
          <mxGeometry width="50" height="50" relative="1" as="geometry">
            <mxPoint y="180" as="sourcePoint" />
            <mxPoint x="200" y="180" as="targetPoint" />
          </mxGeometry>
        </mxCell>
        <mxCell id="SzN8-PFb_mEgps3vLhe2-16" value="←[0 : 0]&lt;span style=&quot;&quot;&gt; &lt;span style=&quot;&quot;&gt; &lt;/span&gt;&lt;/span&gt;commit_en&lt;br&gt;←[31:0]&lt;span style=&quot;&quot;&gt; &lt;span style=&quot;&quot;&gt; &lt;/span&gt;&lt;/span&gt;commit_pc&lt;br&gt;←[31:0]&lt;span style=&quot;&quot;&gt; &lt;span style=&quot;&quot;&gt; &lt;/span&gt;&lt;/span&gt;commit_inst&lt;br style=&quot;border-color: var(--border-color);&quot;&gt;←[0 : 0]&lt;span style=&quot;&quot;&gt; &lt;span style=&quot;&quot;&gt; &lt;/span&gt;&lt;/span&gt;commit_halt&lt;br&gt;←[0 : 0]&lt;span style=&quot;&quot;&gt; &lt;/span&gt;&lt;span style=&quot;background-color: initial;&quot;&gt;commit_reg_we&lt;/span&gt;&lt;br&gt;←[4 : 0]&amp;nbsp;&lt;span style=&quot;background-color: initial;&quot;&gt;commit_reg_wa&lt;/span&gt;&lt;br&gt;←[31:0]&amp;nbsp;&lt;span style=&quot;background-color: initial;&quot;&gt;commit_reg_wd&lt;/span&gt;&lt;br&gt;←[0 : 0]&amp;nbsp;&lt;span style=&quot;background-color: initial;&quot;&gt;commit_dmem_we&lt;/span&gt;&lt;br&gt;←[4 : 0]&amp;nbsp;&lt;span style=&quot;background-color: initial;&quot;&gt;commit_dmem_wa&lt;/span&gt;&lt;br&gt;←[31:0]&amp;nbsp;commit_dmem_wd&lt;br&gt;→[0 : 0]&lt;span style=&quot;border-color: var(--border-color);&quot;&gt; &lt;/span&gt;cpu_reg_ra&lt;br style=&quot;border-color: var(--border-color);&quot;&gt;←[31:0]&lt;span style=&quot;border-color: var(--border-color);&quot;&gt; &lt;/span&gt;cpu_reg_rd&lt;span style=&quot;background-color: initial;&quot;&gt;&lt;br&gt;&lt;/span&gt;" style="text;html=1;strokeColor=none;fillColor=none;align=left;verticalAlign=middle;whiteSpace=wrap;rounded=0;movable=1;resizable=1;rotatable=1;deletable=1;editable=1;locked=0;connectable=1;fontColor=#0000CC;" parent="SzN8-PFb_mEgps3vLhe2-17" vertex="1">
          <mxGeometry x="25" width="150" height="180" as="geometry" />
        </mxCell>
        <mxCell id="SzN8-PFb_mEgps3vLhe2-19" value="" style="endArrow=none;html=1;rounded=0;movable=1;resizable=1;rotatable=1;deletable=1;editable=1;locked=0;connectable=1;" parent="1" edge="1">
          <mxGeometry width="50" height="50" relative="1" as="geometry">
            <mxPoint x="3120" y="2730" as="sourcePoint" />
            <mxPoint x="3120" y="2620" as="targetPoint" />
          </mxGeometry>
        </mxCell>
        <mxCell id="SzN8-PFb_mEgps3vLhe2-20" value="" style="group;movable=1;resizable=1;rotatable=1;deletable=1;editable=1;locked=0;connectable=1;" parent="1" vertex="1" connectable="0">
          <mxGeometry x="3140" y="2583" width="200" height="57" as="geometry" />
        </mxCell>
        <mxCell id="SzN8-PFb_mEgps3vLhe2-21" value="" style="group;strokeColor=default;dashed=1;container=0;movable=1;resizable=1;rotatable=1;deletable=1;editable=1;locked=0;connectable=1;" parent="SzN8-PFb_mEgps3vLhe2-20" vertex="1" connectable="0">
          <mxGeometry width="200" height="57" as="geometry" />
        </mxCell>
        <mxCell id="SzN8-PFb_mEgps3vLhe2-22" value="&lt;b&gt;CPU Reg BUS&lt;/b&gt;" style="text;html=1;strokeColor=none;fillColor=none;align=center;verticalAlign=middle;whiteSpace=wrap;rounded=0;container=0;movable=1;resizable=1;rotatable=1;deletable=1;editable=1;locked=0;connectable=1;" parent="SzN8-PFb_mEgps3vLhe2-20" vertex="1">
          <mxGeometry x="20" y="37" width="160" height="20" as="geometry" />
        </mxCell>
        <mxCell id="SzN8-PFb_mEgps3vLhe2-23" value="" style="endArrow=none;startArrow=none;html=1;rounded=0;startFill=0;endFill=0;movable=1;resizable=1;rotatable=1;deletable=1;editable=1;locked=0;connectable=1;" parent="SzN8-PFb_mEgps3vLhe2-20" edge="1">
          <mxGeometry width="50" height="50" relative="1" as="geometry">
            <mxPoint y="37" as="sourcePoint" />
            <mxPoint x="200" y="37" as="targetPoint" />
          </mxGeometry>
        </mxCell>
        <mxCell id="SzN8-PFb_mEgps3vLhe2-24" value="→[0 : 0]&lt;span style=&quot;white-space: pre;&quot;&gt; debug&lt;/span&gt;_reg_ra&lt;br&gt;←[31:0]&lt;span style=&quot;white-space: pre;&quot;&gt; &lt;/span&gt;debug_reg_rd" style="text;html=1;strokeColor=none;fillColor=none;align=left;verticalAlign=middle;whiteSpace=wrap;rounded=0;container=0;movable=1;resizable=1;rotatable=1;deletable=1;editable=1;locked=0;connectable=1;" parent="SzN8-PFb_mEgps3vLhe2-20" vertex="1">
          <mxGeometry x="40" width="130" height="40" as="geometry" />
        </mxCell>
        <mxCell id="SzN8-PFb_mEgps3vLhe2-30" value="" style="group;movable=1;resizable=1;rotatable=1;deletable=1;editable=1;locked=0;connectable=1;" parent="1" vertex="1" connectable="0">
          <mxGeometry x="3480" y="2483" width="200" height="57" as="geometry" />
        </mxCell>
        <mxCell id="SzN8-PFb_mEgps3vLhe2-31" value="" style="group;strokeColor=default;dashed=1;container=0;movable=1;resizable=1;rotatable=1;deletable=1;editable=1;locked=0;connectable=1;" parent="SzN8-PFb_mEgps3vLhe2-30" vertex="1" connectable="0">
          <mxGeometry width="200" height="57" as="geometry" />
        </mxCell>
        <mxCell id="SzN8-PFb_mEgps3vLhe2-32" value="&lt;b&gt;CPU IMEM BUS&lt;/b&gt;" style="text;html=1;strokeColor=none;fillColor=none;align=center;verticalAlign=middle;whiteSpace=wrap;rounded=0;container=0;movable=1;resizable=1;rotatable=1;deletable=1;editable=1;locked=0;connectable=1;" parent="SzN8-PFb_mEgps3vLhe2-30" vertex="1">
          <mxGeometry x="20" y="37" width="160" height="20" as="geometry" />
        </mxCell>
        <mxCell id="SzN8-PFb_mEgps3vLhe2-33" value="" style="endArrow=none;startArrow=none;html=1;rounded=0;startFill=0;endFill=0;movable=1;resizable=1;rotatable=1;deletable=1;editable=1;locked=0;connectable=1;" parent="SzN8-PFb_mEgps3vLhe2-30" edge="1">
          <mxGeometry width="50" height="50" relative="1" as="geometry">
            <mxPoint y="37" as="sourcePoint" />
            <mxPoint x="200" y="37" as="targetPoint" />
          </mxGeometry>
        </mxCell>
        <mxCell id="SzN8-PFb_mEgps3vLhe2-34" value="→[31:0]&lt;span style=&quot;white-space: pre;&quot;&gt; i&lt;/span&gt;mem_raddr&lt;br&gt;←[31:0]&lt;span style=&quot;white-space: pre;&quot;&gt; &lt;/span&gt;imem_rdata" style="text;html=1;strokeColor=none;fillColor=none;align=left;verticalAlign=middle;whiteSpace=wrap;rounded=0;container=0;movable=1;resizable=1;rotatable=1;deletable=1;editable=1;locked=0;connectable=1;" parent="SzN8-PFb_mEgps3vLhe2-30" vertex="1">
          <mxGeometry x="40" width="130" height="40" as="geometry" />
        </mxCell>
        <mxCell id="SzN8-PFb_mEgps3vLhe2-40" value="&lt;font style=&quot;font-size: 17px;&quot;&gt;CPU MEM&lt;br&gt;ARBITER&lt;/font&gt;" style="rounded=0;whiteSpace=wrap;html=1;fontStyle=1;fontSize=12;movable=1;resizable=1;rotatable=1;deletable=1;editable=1;locked=0;connectable=1;" parent="1" vertex="1">
          <mxGeometry x="3460" y="2000" width="90" height="320" as="geometry" />
        </mxCell>
        <mxCell id="SzN8-PFb_mEgps3vLhe2-41" value="" style="group;dashed=1;strokeColor=default;movable=1;resizable=1;rotatable=1;deletable=1;editable=1;locked=0;connectable=1;" parent="1" vertex="1" connectable="0">
          <mxGeometry x="3480" y="2573" width="200" height="87" as="geometry" />
        </mxCell>
        <mxCell id="SzN8-PFb_mEgps3vLhe2-37" value="&lt;b&gt;CPU DMEM BUS&lt;/b&gt;" style="text;html=1;strokeColor=none;fillColor=none;align=center;verticalAlign=middle;whiteSpace=wrap;rounded=0;container=0;movable=1;resizable=1;rotatable=1;deletable=1;editable=1;locked=0;connectable=1;" parent="SzN8-PFb_mEgps3vLhe2-41" vertex="1">
          <mxGeometry x="20" y="67" width="160" height="20" as="geometry" />
        </mxCell>
        <mxCell id="SzN8-PFb_mEgps3vLhe2-38" value="" style="endArrow=none;startArrow=none;html=1;rounded=0;startFill=0;endFill=0;movable=1;resizable=1;rotatable=1;deletable=1;editable=1;locked=0;connectable=1;" parent="SzN8-PFb_mEgps3vLhe2-41" edge="1">
          <mxGeometry width="50" height="50" relative="1" as="geometry">
            <mxPoint y="67" as="sourcePoint" />
            <mxPoint x="200" y="67" as="targetPoint" />
          </mxGeometry>
        </mxCell>
        <mxCell id="SzN8-PFb_mEgps3vLhe2-39" value="→[31:0]&lt;span style=&quot;&quot;&gt; &lt;/span&gt;dmem_addr&lt;br&gt;←[31:0]&lt;span style=&quot;&quot;&gt; &lt;/span&gt;dmem_rdata&lt;br&gt;→[0 : 0] dmem_we&lt;br&gt;→[31:0] dmem_wdata" style="text;html=1;strokeColor=none;fillColor=none;align=left;verticalAlign=middle;whiteSpace=wrap;rounded=0;container=0;movable=1;resizable=1;rotatable=1;deletable=1;editable=1;locked=0;connectable=1;" parent="SzN8-PFb_mEgps3vLhe2-41" vertex="1">
          <mxGeometry x="40" width="130" height="70" as="geometry" />
        </mxCell>
        <mxCell id="SzN8-PFb_mEgps3vLhe2-47" value="" style="group;strokeColor=default;dashed=1;movable=1;resizable=1;rotatable=1;deletable=1;editable=1;locked=0;connectable=1;" parent="1" vertex="1" connectable="0">
          <mxGeometry x="3230" y="2000" width="200" height="140" as="geometry" />
        </mxCell>
        <mxCell id="SzN8-PFb_mEgps3vLhe2-43" value="&lt;b&gt;CPU Ctrl MEM BUS&lt;/b&gt;" style="text;html=1;strokeColor=none;fillColor=none;align=center;verticalAlign=middle;whiteSpace=wrap;rounded=0;movable=1;resizable=1;rotatable=1;deletable=1;editable=1;locked=0;connectable=1;" parent="SzN8-PFb_mEgps3vLhe2-47" vertex="1">
          <mxGeometry x="20" y="120" width="160" height="20" as="geometry" />
        </mxCell>
        <mxCell id="SzN8-PFb_mEgps3vLhe2-44" value="" style="endArrow=none;startArrow=none;html=1;rounded=0;startFill=0;endFill=0;movable=1;resizable=1;rotatable=1;deletable=1;editable=1;locked=0;connectable=1;" parent="SzN8-PFb_mEgps3vLhe2-47" edge="1">
          <mxGeometry width="50" height="50" relative="1" as="geometry">
            <mxPoint y="120" as="sourcePoint" />
            <mxPoint x="200" y="120" as="targetPoint" />
          </mxGeometry>
        </mxCell>
        <mxCell id="SzN8-PFb_mEgps3vLhe2-45" value="→[31:0]&lt;span style=&quot;&quot;&gt;&amp;nbsp;cpu_ctrl_&lt;/span&gt;imem_addr&lt;br&gt;←[31:0] cpu_ctrl_imem_rdata&lt;br&gt;→[31:0] cpu_ctrl_imem_wdata&lt;br&gt;→[0 : 0] cpu_ctrl_imem_we&lt;br&gt;→[31:0] cpu_ctrl_dmem_addr&lt;br style=&quot;border-color: var(--border-color);&quot;&gt;←[31:0]&amp;nbsp;&lt;span style=&quot;border-color: var(--border-color);&quot;&gt;cpu_ctrl_&lt;/span&gt;dmem_rdata&lt;br style=&quot;border-color: var(--border-color);&quot;&gt;→[31:0]&amp;nbsp;&lt;span style=&quot;border-color: var(--border-color);&quot;&gt;cpu_ctrl_&lt;/span&gt;dmem_wdata&lt;br style=&quot;border-color: var(--border-color);&quot;&gt;→[0 : 0]&amp;nbsp;&lt;span style=&quot;border-color: var(--border-color);&quot;&gt;cpu_ctrl_&lt;/span&gt;dmem_we" style="text;html=1;strokeColor=none;fillColor=none;align=left;verticalAlign=middle;whiteSpace=wrap;rounded=0;movable=1;resizable=1;rotatable=1;deletable=1;editable=1;locked=0;connectable=1;" parent="SzN8-PFb_mEgps3vLhe2-47" vertex="1">
          <mxGeometry x="15" width="170" height="120" as="geometry" />
        </mxCell>
        <mxCell id="SzN8-PFb_mEgps3vLhe2-52" value="" style="group;strokeColor=default;dashed=1;movable=1;resizable=1;rotatable=1;deletable=1;editable=1;locked=0;connectable=1;" parent="1" vertex="1" connectable="0">
          <mxGeometry x="3230" y="2160" width="200" height="110" as="geometry" />
        </mxCell>
        <mxCell id="SzN8-PFb_mEgps3vLhe2-49" value="&lt;b&gt;CPU MEM BUS&lt;/b&gt;" style="text;html=1;strokeColor=none;fillColor=none;align=center;verticalAlign=middle;whiteSpace=wrap;rounded=0;movable=1;resizable=1;rotatable=1;deletable=1;editable=1;locked=0;connectable=1;" parent="SzN8-PFb_mEgps3vLhe2-52" vertex="1">
          <mxGeometry x="20" y="90" width="160" height="20" as="geometry" />
        </mxCell>
        <mxCell id="SzN8-PFb_mEgps3vLhe2-50" value="" style="endArrow=none;startArrow=none;html=1;rounded=0;startFill=0;endFill=0;movable=1;resizable=1;rotatable=1;deletable=1;editable=1;locked=0;connectable=1;" parent="SzN8-PFb_mEgps3vLhe2-52" edge="1">
          <mxGeometry width="50" height="50" relative="1" as="geometry">
            <mxPoint y="90" as="sourcePoint" />
            <mxPoint x="200" y="90" as="targetPoint" />
          </mxGeometry>
        </mxCell>
        <mxCell id="SzN8-PFb_mEgps3vLhe2-51" value="→[31:0]&lt;span style=&quot;&quot;&gt;&amp;nbsp;cpu_&lt;/span&gt;imem_raddr&lt;br&gt;←[31:0] cpu_imem_rdata&lt;br&gt;→[31:0] cpu_dmem_addr&lt;br style=&quot;border-color: var(--border-color);&quot;&gt;←[31:0]&amp;nbsp;&lt;span style=&quot;border-color: var(--border-color);&quot;&gt;cpu_&lt;/span&gt;dmem_rdata&lt;br style=&quot;border-color: var(--border-color);&quot;&gt;→[31:0]&amp;nbsp;&lt;span style=&quot;border-color: var(--border-color);&quot;&gt;cpu_&lt;/span&gt;dmem_wdata&lt;br style=&quot;border-color: var(--border-color);&quot;&gt;→[0 : 0]&amp;nbsp;&lt;span style=&quot;border-color: var(--border-color);&quot;&gt;cpu_&lt;/span&gt;dmem_we" style="text;html=1;strokeColor=none;fillColor=none;align=left;verticalAlign=middle;whiteSpace=wrap;rounded=0;movable=1;resizable=1;rotatable=1;deletable=1;editable=1;locked=0;connectable=1;" parent="SzN8-PFb_mEgps3vLhe2-52" vertex="1">
          <mxGeometry x="25" width="150" height="90" as="geometry" />
        </mxCell>
        <mxCell id="SzN8-PFb_mEgps3vLhe2-53" value="" style="shape=waypoint;sketch=0;size=6;pointerEvents=1;points=[];fillColor=none;resizable=1;rotatable=1;perimeter=centerPerimeter;snapToPoint=1;movable=1;deletable=1;editable=1;locked=0;connectable=1;" parent="1" vertex="1">
          <mxGeometry x="3110" y="2800" width="20" height="20" as="geometry" />
        </mxCell>
        <mxCell id="SzN8-PFb_mEgps3vLhe2-54" value="" style="shape=waypoint;sketch=0;size=6;pointerEvents=1;points=[];fillColor=none;resizable=1;rotatable=1;perimeter=centerPerimeter;snapToPoint=1;movable=1;deletable=1;editable=1;locked=0;connectable=1;" parent="1" vertex="1">
          <mxGeometry x="3110" y="2720" width="20" height="20" as="geometry" />
        </mxCell>
        <mxCell id="SzN8-PFb_mEgps3vLhe2-55" value="" style="shape=waypoint;sketch=0;size=6;pointerEvents=1;points=[];fillColor=none;resizable=1;rotatable=1;perimeter=centerPerimeter;snapToPoint=1;movable=1;deletable=1;editable=1;locked=0;connectable=1;" parent="1" vertex="1">
          <mxGeometry x="3110" y="2610" width="20" height="20" as="geometry" />
        </mxCell>
        <mxCell id="SzN8-PFb_mEgps3vLhe2-56" value="" style="shape=waypoint;sketch=0;size=6;pointerEvents=1;points=[];fillColor=none;resizable=1;rotatable=1;perimeter=centerPerimeter;snapToPoint=1;movable=1;deletable=1;editable=1;locked=0;connectable=1;" parent="1" vertex="1">
          <mxGeometry x="3110" y="2520" width="20" height="20" as="geometry" />
        </mxCell>
        <mxCell id="SzN8-PFb_mEgps3vLhe2-57" value="" style="endArrow=classic;html=1;rounded=0;entryX=0;entryY=0.938;entryDx=0;entryDy=0;entryPerimeter=0;movable=1;resizable=1;rotatable=1;deletable=1;editable=1;locked=0;connectable=1;" parent="1" target="SzN8-PFb_mEgps3vLhe2-40" edge="1">
          <mxGeometry width="50" height="50" relative="1" as="geometry">
            <mxPoint x="3120" y="2480" as="sourcePoint" />
            <mxPoint x="3470" y="2420" as="targetPoint" />
            <Array as="points">
              <mxPoint x="3120" y="2300" />
            </Array>
          </mxGeometry>
        </mxCell>
        <mxCell id="SzN8-PFb_mEgps3vLhe2-58" value="" style="shape=waypoint;sketch=0;size=6;pointerEvents=1;points=[];fillColor=none;resizable=1;rotatable=1;perimeter=centerPerimeter;snapToPoint=1;movable=1;deletable=1;editable=1;locked=0;connectable=1;" parent="1" vertex="1">
          <mxGeometry x="3110" y="2470" width="20" height="20" as="geometry" />
        </mxCell>
        <mxCell id="SzN8-PFb_mEgps3vLhe2-59" value="cpu_global_en" style="text;html=1;strokeColor=none;fillColor=none;align=center;verticalAlign=middle;whiteSpace=wrap;rounded=0;movable=1;resizable=1;rotatable=1;deletable=1;editable=1;locked=0;connectable=1;" parent="1" vertex="1">
          <mxGeometry x="3280" y="2281" width="100" height="20" as="geometry" />
        </mxCell>
        <mxCell id="SzN8-PFb_mEgps3vLhe2-60" value="" style="endArrow=none;html=1;rounded=0;movable=1;resizable=1;rotatable=1;deletable=1;editable=1;locked=0;connectable=1;" parent="1" edge="1">
          <mxGeometry width="50" height="50" relative="1" as="geometry">
            <mxPoint x="3680" y="2640" as="sourcePoint" />
            <mxPoint x="3230" y="2250" as="targetPoint" />
            <Array as="points">
              <mxPoint x="3710" y="2640" />
              <mxPoint x="3710" y="2390" />
              <mxPoint x="3200" y="2390" />
              <mxPoint x="3200" y="2250" />
            </Array>
          </mxGeometry>
        </mxCell>
        <mxCell id="SzN8-PFb_mEgps3vLhe2-61" value="" style="endArrow=none;html=1;rounded=0;movable=1;resizable=1;rotatable=1;deletable=1;editable=1;locked=0;connectable=1;" parent="1" edge="1">
          <mxGeometry width="50" height="50" relative="1" as="geometry">
            <mxPoint x="3680" y="2520" as="sourcePoint" />
            <mxPoint x="3710" y="2520" as="targetPoint" />
          </mxGeometry>
        </mxCell>
        <mxCell id="SzN8-PFb_mEgps3vLhe2-62" value="" style="shape=waypoint;sketch=0;size=6;pointerEvents=1;points=[];fillColor=none;resizable=1;rotatable=1;perimeter=centerPerimeter;snapToPoint=1;movable=1;deletable=1;editable=1;locked=0;connectable=1;" parent="1" vertex="1">
          <mxGeometry x="3700" y="2510" width="20" height="20" as="geometry" />
        </mxCell>
        <mxCell id="SzN8-PFb_mEgps3vLhe2-63" value="SYS_CLK" style="rounded=0;whiteSpace=wrap;html=1;fontStyle=1;movable=1;resizable=1;rotatable=1;deletable=1;editable=1;locked=0;connectable=1;dashed=1;" parent="1" vertex="1">
          <mxGeometry x="3030" y="2470" width="60" height="20" as="geometry" />
        </mxCell>
        <mxCell id="SzN8-PFb_mEgps3vLhe2-64" value="" style="group;strokeColor=default;dashed=1;movable=1;resizable=1;rotatable=1;deletable=1;editable=1;locked=0;connectable=1;" parent="1" vertex="1" connectable="0">
          <mxGeometry x="3580" y="2030" width="200" height="80" as="geometry" />
        </mxCell>
        <mxCell id="SzN8-PFb_mEgps3vLhe2-65" value="&lt;b&gt;IMEM BUS&lt;/b&gt;" style="text;html=1;strokeColor=none;fillColor=none;align=center;verticalAlign=middle;whiteSpace=wrap;rounded=0;movable=1;resizable=1;rotatable=1;deletable=1;editable=1;locked=0;connectable=1;" parent="SzN8-PFb_mEgps3vLhe2-64" vertex="1">
          <mxGeometry x="20" y="60" width="160" height="20" as="geometry" />
        </mxCell>
        <mxCell id="SzN8-PFb_mEgps3vLhe2-66" value="" style="endArrow=none;startArrow=none;html=1;rounded=0;startFill=0;endFill=0;movable=1;resizable=1;rotatable=1;deletable=1;editable=1;locked=0;connectable=1;" parent="SzN8-PFb_mEgps3vLhe2-64" edge="1">
          <mxGeometry width="50" height="50" relative="1" as="geometry">
            <mxPoint y="60" as="sourcePoint" />
            <mxPoint x="200" y="60" as="targetPoint" />
          </mxGeometry>
        </mxCell>
        <mxCell id="SzN8-PFb_mEgps3vLhe2-67" value="→[31:0]&lt;span style=&quot;white-space: pre;&quot;&gt; &lt;/span&gt;imem_addr&lt;br&gt;←[31:0]&lt;span style=&quot;white-space: pre;&quot;&gt; &lt;/span&gt;imem_rdata&lt;br&gt;→[31:0]&lt;span style=&quot;white-space: pre;&quot;&gt; &lt;/span&gt;imem_wdata&lt;br&gt;→[0 : 0]&lt;span style=&quot;white-space: pre;&quot;&gt; &lt;/span&gt;imem_we" style="text;html=1;strokeColor=none;fillColor=none;align=left;verticalAlign=middle;whiteSpace=wrap;rounded=0;movable=1;resizable=1;rotatable=1;deletable=1;editable=1;locked=0;connectable=1;" parent="SzN8-PFb_mEgps3vLhe2-64" vertex="1">
          <mxGeometry x="40" width="120" height="60" as="geometry" />
        </mxCell>
        <mxCell id="SzN8-PFb_mEgps3vLhe2-72" value="" style="group;strokeColor=default;dashed=1;movable=1;resizable=1;rotatable=1;deletable=1;editable=1;locked=0;connectable=1;" parent="1" vertex="1" connectable="0">
          <mxGeometry x="3580" y="2210" width="200" height="80" as="geometry" />
        </mxCell>
        <mxCell id="SzN8-PFb_mEgps3vLhe2-73" value="&lt;b&gt;DMEM BUS&lt;/b&gt;" style="text;html=1;strokeColor=none;fillColor=none;align=center;verticalAlign=middle;whiteSpace=wrap;rounded=0;movable=1;resizable=1;rotatable=1;deletable=1;editable=1;locked=0;connectable=1;" parent="SzN8-PFb_mEgps3vLhe2-72" vertex="1">
          <mxGeometry x="20" y="60" width="160" height="20" as="geometry" />
        </mxCell>
        <mxCell id="SzN8-PFb_mEgps3vLhe2-74" value="" style="endArrow=none;startArrow=none;html=1;rounded=0;startFill=0;endFill=0;movable=1;resizable=1;rotatable=1;deletable=1;editable=1;locked=0;connectable=1;" parent="SzN8-PFb_mEgps3vLhe2-72" edge="1">
          <mxGeometry width="50" height="50" relative="1" as="geometry">
            <mxPoint y="60" as="sourcePoint" />
            <mxPoint x="200" y="60" as="targetPoint" />
          </mxGeometry>
        </mxCell>
        <mxCell id="SzN8-PFb_mEgps3vLhe2-75" value="→[31:0]&lt;span style=&quot;white-space: pre;&quot;&gt; &lt;/span&gt;dmem_addr&lt;br&gt;←[31:0]&lt;span style=&quot;white-space: pre;&quot;&gt; &lt;/span&gt;dmem_rdata&lt;br&gt;→[31:0]&lt;span style=&quot;white-space: pre;&quot;&gt; &lt;/span&gt;dmem_wdata&lt;br&gt;→[0 : 0]&lt;span style=&quot;white-space: pre;&quot;&gt; &lt;/span&gt;dmem_we" style="text;html=1;strokeColor=none;fillColor=none;align=left;verticalAlign=middle;whiteSpace=wrap;rounded=0;movable=1;resizable=1;rotatable=1;deletable=1;editable=1;locked=0;connectable=1;" parent="SzN8-PFb_mEgps3vLhe2-72" vertex="1">
          <mxGeometry x="40" width="120" height="60" as="geometry" />
        </mxCell>
        <mxCell id="SzN8-PFb_mEgps3vLhe2-76" value="" style="group;strokeColor=default;dashed=1;movable=1;resizable=1;rotatable=1;deletable=1;editable=1;locked=0;connectable=1;" parent="1" vertex="1" connectable="0">
          <mxGeometry x="3830" y="2035" width="200" height="100" as="geometry" />
        </mxCell>
        <mxCell id="SzN8-PFb_mEgps3vLhe2-77" value="&lt;b&gt;MEM BUS&lt;/b&gt;" style="text;html=1;strokeColor=none;fillColor=none;align=center;verticalAlign=middle;whiteSpace=wrap;rounded=0;movable=1;resizable=1;rotatable=1;deletable=1;editable=1;locked=0;connectable=1;" parent="SzN8-PFb_mEgps3vLhe2-76" vertex="1">
          <mxGeometry x="20" y="75" width="160" height="25" as="geometry" />
        </mxCell>
        <mxCell id="SzN8-PFb_mEgps3vLhe2-78" value="" style="endArrow=none;startArrow=none;html=1;rounded=0;startFill=0;endFill=0;movable=1;resizable=1;rotatable=1;deletable=1;editable=1;locked=0;connectable=1;" parent="SzN8-PFb_mEgps3vLhe2-76" edge="1">
          <mxGeometry width="50" height="50" relative="1" as="geometry">
            <mxPoint y="75" as="sourcePoint" />
            <mxPoint x="200" y="75" as="targetPoint" />
          </mxGeometry>
        </mxCell>
        <mxCell id="SzN8-PFb_mEgps3vLhe2-79" value="→[0 : 0] clk&lt;br&gt;→[31:0]&lt;span style=&quot;&quot;&gt; &lt;/span&gt;addr&lt;br&gt;←[31:0]&lt;span style=&quot;&quot;&gt; &lt;/span&gt;rdata&lt;br&gt;→[31:0]&lt;span style=&quot;&quot;&gt; &lt;/span&gt;wdata&lt;br&gt;→[0 : 0]&lt;span style=&quot;&quot;&gt; &lt;/span&gt;we" style="text;html=1;strokeColor=none;fillColor=none;align=left;verticalAlign=middle;whiteSpace=wrap;rounded=0;movable=1;resizable=1;rotatable=1;deletable=1;editable=1;locked=0;connectable=1;" parent="SzN8-PFb_mEgps3vLhe2-76" vertex="1">
          <mxGeometry x="57" width="90" height="75" as="geometry" />
        </mxCell>
        <mxCell id="SzN8-PFb_mEgps3vLhe2-80" value="" style="group;strokeColor=default;dashed=1;movable=1;resizable=1;rotatable=1;deletable=1;editable=1;locked=0;connectable=1;" parent="1" vertex="1" connectable="0">
          <mxGeometry x="3830" y="2165" width="200" height="100" as="geometry" />
        </mxCell>
        <mxCell id="SzN8-PFb_mEgps3vLhe2-81" value="&lt;b&gt;MEM BUS&lt;/b&gt;" style="text;html=1;strokeColor=none;fillColor=none;align=center;verticalAlign=middle;whiteSpace=wrap;rounded=0;movable=1;resizable=1;rotatable=1;deletable=1;editable=1;locked=0;connectable=1;" parent="SzN8-PFb_mEgps3vLhe2-80" vertex="1">
          <mxGeometry x="20" y="75" width="160" height="25" as="geometry" />
        </mxCell>
        <mxCell id="SzN8-PFb_mEgps3vLhe2-82" value="" style="endArrow=none;startArrow=none;html=1;rounded=0;startFill=0;endFill=0;movable=1;resizable=1;rotatable=1;deletable=1;editable=1;locked=0;connectable=1;" parent="SzN8-PFb_mEgps3vLhe2-80" edge="1">
          <mxGeometry width="50" height="50" relative="1" as="geometry">
            <mxPoint y="75" as="sourcePoint" />
            <mxPoint x="200" y="75" as="targetPoint" />
          </mxGeometry>
        </mxCell>
        <mxCell id="SzN8-PFb_mEgps3vLhe2-83" value="→[0 : 0] clk&lt;br&gt;→[31:0]&lt;span style=&quot;&quot;&gt; &lt;/span&gt;addr&lt;br&gt;←[31:0]&lt;span style=&quot;&quot;&gt; &lt;/span&gt;rdata&lt;br&gt;→[31:0]&lt;span style=&quot;&quot;&gt; &lt;/span&gt;wdata&lt;br&gt;→[0 : 0]&lt;span style=&quot;&quot;&gt; &lt;/span&gt;we" style="text;html=1;strokeColor=none;fillColor=none;align=left;verticalAlign=middle;whiteSpace=wrap;rounded=0;movable=1;resizable=1;rotatable=1;deletable=1;editable=1;locked=0;connectable=1;" parent="SzN8-PFb_mEgps3vLhe2-80" vertex="1">
          <mxGeometry x="57" width="90" height="75" as="geometry" />
        </mxCell>
        <mxCell id="SzN8-PFb_mEgps3vLhe2-85" value="" style="endArrow=none;html=1;rounded=0;movable=1;resizable=1;rotatable=1;deletable=1;editable=1;locked=0;connectable=1;" parent="1" edge="1">
          <mxGeometry width="50" height="50" relative="1" as="geometry">
            <mxPoint x="3780" y="2090" as="sourcePoint" />
            <mxPoint x="3830" y="2110" as="targetPoint" />
            <Array as="points">
              <mxPoint x="3810" y="2090" />
              <mxPoint x="3810" y="2110" />
            </Array>
          </mxGeometry>
        </mxCell>
        <mxCell id="SzN8-PFb_mEgps3vLhe2-86" value="" style="endArrow=none;html=1;rounded=0;exitX=1;exitY=0.5;exitDx=0;exitDy=0;movable=1;resizable=1;rotatable=1;deletable=1;editable=1;locked=0;connectable=1;" parent="1" edge="1">
          <mxGeometry width="50" height="50" relative="1" as="geometry">
            <mxPoint x="3770" y="2160" as="sourcePoint" />
            <mxPoint x="3810" y="2110" as="targetPoint" />
            <Array as="points">
              <mxPoint x="3790" y="2160" />
              <mxPoint x="3790" y="2110" />
            </Array>
          </mxGeometry>
        </mxCell>
        <mxCell id="SzN8-PFb_mEgps3vLhe2-87" value="" style="endArrow=none;html=1;rounded=0;movable=1;resizable=1;rotatable=1;deletable=1;editable=1;locked=0;connectable=1;" parent="1" edge="1">
          <mxGeometry width="50" height="50" relative="1" as="geometry">
            <mxPoint x="3790" y="2160" as="sourcePoint" />
            <mxPoint x="3830" y="2240" as="targetPoint" />
            <Array as="points">
              <mxPoint x="3790" y="2240" />
            </Array>
          </mxGeometry>
        </mxCell>
        <mxCell id="SzN8-PFb_mEgps3vLhe2-88" value="" style="endArrow=none;html=1;rounded=0;movable=1;resizable=1;rotatable=1;deletable=1;editable=1;locked=0;connectable=1;" parent="1" edge="1">
          <mxGeometry width="50" height="50" relative="1" as="geometry">
            <mxPoint x="3780" y="2270" as="sourcePoint" />
            <mxPoint x="3810" y="2240" as="targetPoint" />
            <Array as="points">
              <mxPoint x="3810" y="2270" />
            </Array>
          </mxGeometry>
        </mxCell>
        <mxCell id="SzN8-PFb_mEgps3vLhe2-89" value="" style="endArrow=none;html=1;rounded=0;entryX=0;entryY=0.5;entryDx=0;entryDy=0;movable=1;resizable=1;rotatable=1;deletable=1;editable=1;locked=0;connectable=1;" parent="1" target="mOBEmlkJbgyievoEXcgK-3" edge="1">
          <mxGeometry width="50" height="50" relative="1" as="geometry">
            <mxPoint x="4030" y="2240" as="sourcePoint" />
            <mxPoint x="4080" y="2160" as="targetPoint" />
          </mxGeometry>
        </mxCell>
        <mxCell id="SzN8-PFb_mEgps3vLhe2-90" value="" style="endArrow=none;html=1;rounded=0;entryX=0;entryY=0.5;entryDx=0;entryDy=0;movable=1;resizable=1;rotatable=1;deletable=1;editable=1;locked=0;connectable=1;" parent="1" target="mOBEmlkJbgyievoEXcgK-2" edge="1">
          <mxGeometry width="50" height="50" relative="1" as="geometry">
            <mxPoint x="4030" y="2110" as="sourcePoint" />
            <mxPoint x="4120" y="2050" as="targetPoint" />
          </mxGeometry>
        </mxCell>
        <mxCell id="SzN8-PFb_mEgps3vLhe2-91" value="" style="endArrow=none;html=1;rounded=0;exitX=1;exitY=0.844;exitDx=0;exitDy=0;exitPerimeter=0;movable=1;resizable=1;rotatable=1;deletable=1;editable=1;locked=0;connectable=1;" parent="1" source="SzN8-PFb_mEgps3vLhe2-40" edge="1">
          <mxGeometry width="50" height="50" relative="1" as="geometry">
            <mxPoint x="3570" y="2210" as="sourcePoint" />
            <mxPoint x="3580" y="2270" as="targetPoint" />
          </mxGeometry>
        </mxCell>
        <mxCell id="SzN8-PFb_mEgps3vLhe2-92" value="" style="endArrow=none;html=1;rounded=0;exitX=1;exitY=0.844;exitDx=0;exitDy=0;exitPerimeter=0;movable=1;resizable=1;rotatable=1;deletable=1;editable=1;locked=0;connectable=1;" parent="1" edge="1">
          <mxGeometry width="50" height="50" relative="1" as="geometry">
            <mxPoint x="3550" y="2090" as="sourcePoint" />
            <mxPoint x="3580" y="2090" as="targetPoint" />
          </mxGeometry>
        </mxCell>
        <mxCell id="SzN8-PFb_mEgps3vLhe2-93" value="" style="endArrow=none;html=1;rounded=0;exitX=1;exitY=0.844;exitDx=0;exitDy=0;exitPerimeter=0;movable=1;resizable=1;rotatable=1;deletable=1;editable=1;locked=0;connectable=1;" parent="1" edge="1">
          <mxGeometry width="50" height="50" relative="1" as="geometry">
            <mxPoint x="3430" y="2120" as="sourcePoint" />
            <mxPoint x="3460" y="2120" as="targetPoint" />
          </mxGeometry>
        </mxCell>
        <mxCell id="SzN8-PFb_mEgps3vLhe2-94" value="" style="endArrow=none;html=1;rounded=0;exitX=1;exitY=0.844;exitDx=0;exitDy=0;exitPerimeter=0;movable=1;resizable=1;rotatable=1;deletable=1;editable=1;locked=0;connectable=1;" parent="1" edge="1">
          <mxGeometry width="50" height="50" relative="1" as="geometry">
            <mxPoint x="3430" y="2249.76" as="sourcePoint" />
            <mxPoint x="3460" y="2249.76" as="targetPoint" />
          </mxGeometry>
        </mxCell>
        <mxCell id="SzN8-PFb_mEgps3vLhe2-95" value="" style="endArrow=none;html=1;rounded=0;movable=1;resizable=1;rotatable=1;deletable=1;editable=1;locked=0;connectable=1;" parent="1" edge="1">
          <mxGeometry width="50" height="50" relative="1" as="geometry">
            <mxPoint x="3090" y="2220" as="sourcePoint" />
            <mxPoint x="3230" y="2120" as="targetPoint" />
            <Array as="points">
              <mxPoint x="3120" y="2220" />
              <mxPoint x="3120" y="2120" />
            </Array>
          </mxGeometry>
        </mxCell>
        <mxCell id="SzN8-PFb_mEgps3vLhe2-96" value="" style="endArrow=none;html=1;rounded=0;movable=1;resizable=1;rotatable=1;deletable=1;editable=1;locked=0;connectable=1;" parent="1" edge="1">
          <mxGeometry width="50" height="50" relative="1" as="geometry">
            <mxPoint x="3090" y="2130" as="sourcePoint" />
            <mxPoint x="3120" y="2130" as="targetPoint" />
          </mxGeometry>
        </mxCell>
        <mxCell id="SzN8-PFb_mEgps3vLhe2-98" value="" style="shape=waypoint;sketch=0;size=6;pointerEvents=1;points=[];fillColor=none;resizable=1;rotatable=1;perimeter=centerPerimeter;snapToPoint=1;movable=1;deletable=1;editable=1;locked=0;connectable=1;" parent="1" vertex="1">
          <mxGeometry x="3110" y="2120" width="20" height="20" as="geometry" />
        </mxCell>
        <mxCell id="SzN8-PFb_mEgps3vLhe2-99" value="" style="endArrow=none;html=1;rounded=0;movable=1;resizable=1;rotatable=1;deletable=1;editable=1;locked=0;connectable=1;" parent="1" edge="1">
          <mxGeometry width="50" height="50" relative="1" as="geometry">
            <mxPoint x="3340" y="2530" as="sourcePoint" />
            <mxPoint x="3370" y="2530" as="targetPoint" />
          </mxGeometry>
        </mxCell>
        <mxCell id="SzN8-PFb_mEgps3vLhe2-100" value="" style="endArrow=none;html=1;rounded=0;movable=1;resizable=1;rotatable=1;deletable=1;editable=1;locked=0;connectable=1;" parent="1" edge="1">
          <mxGeometry width="50" height="50" relative="1" as="geometry">
            <mxPoint x="3340" y="2619.76" as="sourcePoint" />
            <mxPoint x="3370" y="2619.76" as="targetPoint" />
          </mxGeometry>
        </mxCell>
        <mxCell id="SzN8-PFb_mEgps3vLhe2-101" value="" style="endArrow=none;html=1;rounded=0;movable=1;resizable=1;rotatable=1;deletable=1;editable=1;locked=0;connectable=1;" parent="1" edge="1">
          <mxGeometry width="50" height="50" relative="1" as="geometry">
            <mxPoint x="3340" y="2809.76" as="sourcePoint" />
            <mxPoint x="3370" y="2809.76" as="targetPoint" />
          </mxGeometry>
        </mxCell>
        <mxCell id="SzN8-PFb_mEgps3vLhe2-102" value="" style="endArrow=none;html=1;rounded=0;movable=1;resizable=1;rotatable=1;deletable=1;editable=1;locked=0;connectable=1;" parent="1" edge="1">
          <mxGeometry width="50" height="50" relative="1" as="geometry">
            <mxPoint x="3450" y="2520" as="sourcePoint" />
            <mxPoint x="3480" y="2520" as="targetPoint" />
          </mxGeometry>
        </mxCell>
        <mxCell id="SzN8-PFb_mEgps3vLhe2-103" value="" style="endArrow=none;html=1;rounded=0;movable=1;resizable=1;rotatable=1;deletable=1;editable=1;locked=0;connectable=1;" parent="1" edge="1">
          <mxGeometry width="50" height="50" relative="1" as="geometry">
            <mxPoint x="3450" y="2640" as="sourcePoint" />
            <mxPoint x="3480" y="2640" as="targetPoint" />
          </mxGeometry>
        </mxCell>
        <mxCell id="SzN8-PFb_mEgps3vLhe2-104" value="" style="endArrow=none;html=1;rounded=0;exitX=1.004;exitY=0.099;exitDx=0;exitDy=0;exitPerimeter=0;movable=1;resizable=1;rotatable=1;deletable=1;editable=1;locked=0;connectable=1;" parent="1" source="mOBEmlkJbgyievoEXcgK-1" edge="1">
          <mxGeometry width="50" height="50" relative="1" as="geometry">
            <mxPoint x="2900" y="2340" as="sourcePoint" />
            <mxPoint x="2890" y="2130" as="targetPoint" />
          </mxGeometry>
        </mxCell>
        <mxCell id="SzN8-PFb_mEgps3vLhe2-105" value="SYS_CLK" style="rounded=0;whiteSpace=wrap;html=1;fontStyle=1;movable=1;resizable=1;rotatable=1;deletable=1;editable=1;locked=0;connectable=1;dashed=1;" parent="1" vertex="1">
          <mxGeometry x="3710" y="2150" width="60" height="20" as="geometry" />
        </mxCell>
        <mxCell id="SzN8-PFb_mEgps3vLhe2-106" value="" style="endArrow=none;html=1;rounded=0;exitX=1;exitY=0.225;exitDx=0;exitDy=0;exitPerimeter=0;movable=1;resizable=1;rotatable=1;deletable=1;editable=1;locked=0;connectable=1;" parent="1" source="mOBEmlkJbgyievoEXcgK-1" edge="1">
          <mxGeometry width="50" height="50" relative="1" as="geometry">
            <mxPoint x="2910" y="2320" as="sourcePoint" />
            <mxPoint x="2890" y="2220" as="targetPoint" />
          </mxGeometry>
        </mxCell>
        <mxCell id="SzN8-PFb_mEgps3vLhe2-107" value="" style="endArrow=none;html=1;rounded=0;exitX=1;exitY=0.225;exitDx=0;exitDy=0;exitPerimeter=0;movable=1;resizable=1;rotatable=1;deletable=1;editable=1;locked=0;connectable=1;" parent="1" edge="1">
          <mxGeometry width="50" height="50" relative="1" as="geometry">
            <mxPoint x="2840" y="2540" as="sourcePoint" />
            <mxPoint x="2890" y="2540" as="targetPoint" />
          </mxGeometry>
        </mxCell>
        <mxCell id="SzN8-PFb_mEgps3vLhe2-108" value="" style="endArrow=none;html=1;rounded=0;exitX=1;exitY=0.225;exitDx=0;exitDy=0;exitPerimeter=0;movable=1;resizable=1;rotatable=1;deletable=1;editable=1;locked=0;connectable=1;" parent="1" edge="1">
          <mxGeometry width="50" height="50" relative="1" as="geometry">
            <mxPoint x="2840" y="2619.76" as="sourcePoint" />
            <mxPoint x="2890" y="2619.76" as="targetPoint" />
          </mxGeometry>
        </mxCell>
        <mxCell id="SzN8-PFb_mEgps3vLhe2-109" value="" style="endArrow=none;html=1;rounded=0;exitX=1;exitY=0.225;exitDx=0;exitDy=0;exitPerimeter=0;movable=1;resizable=1;rotatable=1;deletable=1;editable=1;locked=0;connectable=1;" parent="1" edge="1">
          <mxGeometry width="50" height="50" relative="1" as="geometry">
            <mxPoint x="2840" y="2729.76" as="sourcePoint" />
            <mxPoint x="2890" y="2730" as="targetPoint" />
          </mxGeometry>
        </mxCell>
        <mxCell id="SzN8-PFb_mEgps3vLhe2-112" value="" style="group;movable=1;resizable=1;rotatable=1;deletable=1;editable=1;locked=0;connectable=1;" parent="1" vertex="1" connectable="0">
          <mxGeometry x="2470" y="2093" width="200" height="57" as="geometry" />
        </mxCell>
        <mxCell id="SzN8-PFb_mEgps3vLhe2-113" value="" style="group;strokeColor=default;dashed=1;container=0;movable=1;resizable=1;rotatable=1;deletable=1;editable=1;locked=0;connectable=1;" parent="SzN8-PFb_mEgps3vLhe2-112" vertex="1" connectable="0">
          <mxGeometry width="200" height="57" as="geometry" />
        </mxCell>
        <mxCell id="SzN8-PFb_mEgps3vLhe2-114" value="&lt;b&gt;CPU Ctrl System BUS&lt;/b&gt;" style="text;html=1;strokeColor=none;fillColor=none;align=center;verticalAlign=middle;whiteSpace=wrap;rounded=0;container=0;movable=1;resizable=1;rotatable=1;deletable=1;editable=1;locked=0;connectable=1;" parent="SzN8-PFb_mEgps3vLhe2-112" vertex="1">
          <mxGeometry x="20" y="37" width="160" height="20" as="geometry" />
        </mxCell>
        <mxCell id="SzN8-PFb_mEgps3vLhe2-115" value="" style="endArrow=none;startArrow=none;html=1;rounded=0;startFill=0;endFill=0;movable=1;resizable=1;rotatable=1;deletable=1;editable=1;locked=0;connectable=1;" parent="SzN8-PFb_mEgps3vLhe2-112" edge="1">
          <mxGeometry width="50" height="50" relative="1" as="geometry">
            <mxPoint y="37" as="sourcePoint" />
            <mxPoint x="200" y="37" as="targetPoint" />
          </mxGeometry>
        </mxCell>
        <mxCell id="SzN8-PFb_mEgps3vLhe2-116" value="→[0 : 0]&lt;span style=&quot;&quot;&gt; sys_clk&lt;/span&gt;&lt;br&gt;→[31:0]&lt;span style=&quot;&quot;&gt; &lt;/span&gt;sys_rst" style="text;html=1;strokeColor=none;fillColor=none;align=left;verticalAlign=middle;whiteSpace=wrap;rounded=0;container=0;movable=1;resizable=1;rotatable=1;deletable=1;editable=1;locked=0;connectable=1;" parent="SzN8-PFb_mEgps3vLhe2-112" vertex="1">
          <mxGeometry x="55" width="90" height="40" as="geometry" />
        </mxCell>
        <mxCell id="SzN8-PFb_mEgps3vLhe2-117" value="" style="group;strokeColor=default;dashed=1;movable=1;resizable=1;rotatable=1;deletable=1;editable=1;locked=0;connectable=1;" parent="1" vertex="1" connectable="0">
          <mxGeometry x="2470" y="2650" width="200" height="80" as="geometry" />
        </mxCell>
        <mxCell id="SzN8-PFb_mEgps3vLhe2-118" value="&lt;b style=&quot;border-color: var(--border-color);&quot;&gt;CPU Interface&lt;/b&gt;" style="text;html=1;strokeColor=none;fillColor=none;align=center;verticalAlign=middle;whiteSpace=wrap;rounded=0;movable=1;resizable=1;rotatable=1;deletable=1;editable=1;locked=0;connectable=1;" parent="SzN8-PFb_mEgps3vLhe2-117" vertex="1">
          <mxGeometry x="20" y="60" width="160" height="20" as="geometry" />
        </mxCell>
        <mxCell id="SzN8-PFb_mEgps3vLhe2-119" value="" style="endArrow=none;startArrow=none;html=1;rounded=0;startFill=0;endFill=0;movable=1;resizable=1;rotatable=1;deletable=1;editable=1;locked=0;connectable=1;" parent="SzN8-PFb_mEgps3vLhe2-117" edge="1">
          <mxGeometry width="50" height="50" relative="1" as="geometry">
            <mxPoint y="60" as="sourcePoint" />
            <mxPoint x="200" y="60" as="targetPoint" />
          </mxGeometry>
        </mxCell>
        <mxCell id="SzN8-PFb_mEgps3vLhe2-120" value="→[31:0]&lt;span style=&quot;&quot;&gt; &lt;/span&gt;interface_addr&lt;br&gt;←[31:0]&lt;span style=&quot;&quot;&gt; &lt;/span&gt;interface_rdata&lt;br&gt;→[31:0]&lt;span style=&quot;&quot;&gt;&amp;nbsp;&lt;/span&gt;interface_wdata&lt;br&gt;→[0 : 0]&lt;span style=&quot;&quot;&gt;&amp;nbsp;&lt;/span&gt;interface_we" style="text;html=1;strokeColor=none;fillColor=none;align=left;verticalAlign=middle;whiteSpace=wrap;rounded=0;movable=1;resizable=1;rotatable=1;deletable=1;editable=1;locked=0;connectable=1;" parent="SzN8-PFb_mEgps3vLhe2-117" vertex="1">
          <mxGeometry x="35" width="130" height="60" as="geometry" />
        </mxCell>
        <mxCell id="SzN8-PFb_mEgps3vLhe2-121" value="" style="endArrow=none;html=1;rounded=0;entryX=0;entryY=0.099;entryDx=0;entryDy=0;entryPerimeter=0;" parent="1" target="mOBEmlkJbgyievoEXcgK-1" edge="1">
          <mxGeometry width="50" height="50" relative="1" as="geometry">
            <mxPoint x="2670" y="2130" as="sourcePoint" />
            <mxPoint x="2700" y="2000" as="targetPoint" />
          </mxGeometry>
        </mxCell>
        <mxCell id="SzN8-PFb_mEgps3vLhe2-122" value="" style="endArrow=none;html=1;rounded=0;entryX=0;entryY=0.099;entryDx=0;entryDy=0;entryPerimeter=0;" parent="1" edge="1">
          <mxGeometry width="50" height="50" relative="1" as="geometry">
            <mxPoint x="2670" y="2710" as="sourcePoint" />
            <mxPoint x="2720" y="2710" as="targetPoint" />
          </mxGeometry>
        </mxCell>
        <mxCell id="SzN8-PFb_mEgps3vLhe2-123" value="&lt;font style=&quot;font-size: 45px;&quot;&gt;PDU BUS&lt;/font&gt;" style="rounded=0;whiteSpace=wrap;html=1;fontStyle=1;fontSize=17;movable=1;resizable=1;rotatable=1;deletable=1;editable=1;locked=0;connectable=1;" parent="1" vertex="1">
          <mxGeometry x="1680" y="1080" width="240" height="2040" as="geometry" />
        </mxCell>
        <mxCell id="SzN8-PFb_mEgps3vLhe2-129" value="" style="group;strokeColor=default;dashed=1;" parent="1" vertex="1" connectable="0">
          <mxGeometry x="1960" y="2650" width="200" height="80" as="geometry" />
        </mxCell>
        <mxCell id="SzN8-PFb_mEgps3vLhe2-125" value="&lt;b&gt;CPU Interface&lt;/b&gt;" style="text;html=1;strokeColor=none;fillColor=none;align=center;verticalAlign=middle;whiteSpace=wrap;rounded=0;movable=1;resizable=1;rotatable=1;deletable=1;editable=1;locked=0;connectable=1;container=0;" parent="SzN8-PFb_mEgps3vLhe2-129" vertex="1">
          <mxGeometry x="20" y="60" width="160" height="20" as="geometry" />
        </mxCell>
        <mxCell id="SzN8-PFb_mEgps3vLhe2-126" value="" style="endArrow=none;startArrow=none;html=1;rounded=0;startFill=0;endFill=0;movable=1;resizable=1;rotatable=1;deletable=1;editable=1;locked=0;connectable=1;" parent="SzN8-PFb_mEgps3vLhe2-129" edge="1">
          <mxGeometry width="50" height="50" relative="1" as="geometry">
            <mxPoint y="60" as="sourcePoint" />
            <mxPoint x="200" y="60" as="targetPoint" />
          </mxGeometry>
        </mxCell>
        <mxCell id="SzN8-PFb_mEgps3vLhe2-127" value="→[31:0]&lt;span style=&quot;&quot;&gt;&amp;nbsp;cpu_&lt;/span&gt;interface_addr&lt;br&gt;←[31:0] cpu_interface_rdata&lt;br&gt;→[31:0]&amp;nbsp;cpu_interface_wdata&lt;br&gt;→[0 : 0]&amp;nbsp;cpu_interface_we" style="text;html=1;strokeColor=none;fillColor=none;align=left;verticalAlign=middle;whiteSpace=wrap;rounded=0;movable=1;resizable=1;rotatable=1;deletable=1;editable=1;locked=0;connectable=1;container=0;" parent="SzN8-PFb_mEgps3vLhe2-129" vertex="1">
          <mxGeometry x="20" width="162.5" height="60" as="geometry" />
        </mxCell>
        <mxCell id="SzN8-PFb_mEgps3vLhe2-130" value="" style="endArrow=none;html=1;rounded=0;" parent="1" edge="1">
          <mxGeometry width="50" height="50" relative="1" as="geometry">
            <mxPoint x="1920" y="2710" as="sourcePoint" />
            <mxPoint x="1960" y="2710" as="targetPoint" />
          </mxGeometry>
        </mxCell>
        <mxCell id="SzN8-PFb_mEgps3vLhe2-131" value="" style="endArrow=none;html=1;rounded=0;" parent="1" edge="1">
          <mxGeometry width="50" height="50" relative="1" as="geometry">
            <mxPoint x="2160" y="2710" as="sourcePoint" />
            <mxPoint x="2470.2150012600805" y="2710" as="targetPoint" />
          </mxGeometry>
        </mxCell>
        <mxCell id="5C9xvMvv8BL5N6FmCVYK-17" value="&lt;font style=&quot;font-size: 18px;&quot;&gt;RX&lt;br&gt;Queue&lt;/font&gt;" style="rounded=0;whiteSpace=wrap;html=1;fontStyle=1;fontSize=12;movable=1;resizable=1;rotatable=1;deletable=1;editable=1;locked=0;connectable=1;" parent="1" vertex="1">
          <mxGeometry x="1010" y="2691" width="80" height="250" as="geometry" />
        </mxCell>
        <mxCell id="5C9xvMvv8BL5N6FmCVYK-22" value="&lt;font style=&quot;font-size: 18px;&quot;&gt;UART&lt;br&gt;RX&lt;/font&gt;" style="rounded=0;whiteSpace=wrap;html=1;fontStyle=1;fontSize=12;movable=1;resizable=1;rotatable=1;deletable=1;editable=1;locked=0;connectable=1;" parent="1" vertex="1">
          <mxGeometry x="300" y="2880" width="80" height="120" as="geometry" />
        </mxCell>
        <mxCell id="5C9xvMvv8BL5N6FmCVYK-26" value="" style="endArrow=none;html=1;rounded=0;entryX=0;entryY=0.75;entryDx=0;entryDy=0;movable=1;resizable=1;rotatable=1;deletable=1;editable=1;locked=0;connectable=1;" parent="1" target="5C9xvMvv8BL5N6FmCVYK-22" edge="1">
          <mxGeometry width="50" height="50" relative="1" as="geometry">
            <mxPoint x="-30" y="2970" as="sourcePoint" />
            <mxPoint x="250" y="2999.52" as="targetPoint" />
          </mxGeometry>
        </mxCell>
        <mxCell id="5C9xvMvv8BL5N6FmCVYK-28" value="→[0 : 0]&lt;span style=&quot;border-color: var(--border-color); text-align: left;&quot;&gt;&amp;nbsp;&lt;span style=&quot;border-color: var(--border-color);&quot;&gt; &lt;/span&gt;uart_rxd&lt;/span&gt;" style="text;html=1;strokeColor=none;fillColor=none;align=center;verticalAlign=middle;whiteSpace=wrap;rounded=0;movable=1;resizable=1;rotatable=1;deletable=1;editable=1;locked=0;connectable=1;" parent="1" vertex="1">
          <mxGeometry x="-30" y="2950.02" width="110" height="20" as="geometry" />
        </mxCell>
        <mxCell id="5C9xvMvv8BL5N6FmCVYK-29" value="&lt;font style=&quot;font-size: 17px;&quot;&gt;Posedge&lt;br&gt;Gen&lt;/font&gt;" style="rounded=0;whiteSpace=wrap;html=1;fontStyle=1;fontSize=12;movable=1;resizable=1;rotatable=1;deletable=1;editable=1;locked=0;connectable=1;" parent="1" vertex="1">
          <mxGeometry x="520" y="2890" width="80" height="40" as="geometry" />
        </mxCell>
        <mxCell id="5C9xvMvv8BL5N6FmCVYK-31" value="→[7 : 0]&amp;nbsp; rx_enqueue_&lt;span style=&quot;border-color: var(--border-color); text-align: left;&quot;&gt;&lt;/span&gt;&lt;span style=&quot;text-align: left;&quot;&gt;data&lt;/span&gt;" style="text;html=1;strokeColor=none;fillColor=none;align=center;verticalAlign=middle;whiteSpace=wrap;rounded=0;movable=1;resizable=1;rotatable=1;deletable=1;editable=1;locked=0;connectable=1;" parent="1" vertex="1">
          <mxGeometry x="379" y="2949.02" width="150" height="21" as="geometry" />
        </mxCell>
        <mxCell id="5C9xvMvv8BL5N6FmCVYK-32" value="" style="endArrow=none;html=1;rounded=0;exitX=1;exitY=0.25;exitDx=0;exitDy=0;entryX=0;entryY=0.5;entryDx=0;entryDy=0;movable=1;resizable=1;rotatable=1;deletable=1;editable=1;locked=0;connectable=1;" parent="1" source="5C9xvMvv8BL5N6FmCVYK-22" target="5C9xvMvv8BL5N6FmCVYK-29" edge="1">
          <mxGeometry width="50" height="50" relative="1" as="geometry">
            <mxPoint x="380" y="2910" as="sourcePoint" />
            <mxPoint x="530" y="2910" as="targetPoint" />
          </mxGeometry>
        </mxCell>
        <mxCell id="5C9xvMvv8BL5N6FmCVYK-33" value="→[0 : 0]&amp;nbsp;&lt;span style=&quot;border-color: var(--border-color); text-align: left;&quot;&gt;&lt;/span&gt;&lt;span style=&quot;text-align: left;&quot;&gt;ready&lt;/span&gt;" style="text;html=1;strokeColor=none;fillColor=none;align=center;verticalAlign=middle;whiteSpace=wrap;rounded=0;movable=1;resizable=1;rotatable=1;deletable=1;editable=1;locked=0;connectable=1;" parent="1" vertex="1">
          <mxGeometry x="380" y="2890" width="80" height="20" as="geometry" />
        </mxCell>
        <mxCell id="5C9xvMvv8BL5N6FmCVYK-37" value="" style="endArrow=none;html=1;rounded=0;exitX=1;exitY=0.5;exitDx=0;exitDy=0;movable=1;resizable=1;rotatable=1;deletable=1;editable=1;locked=0;connectable=1;" parent="1" source="5C9xvMvv8BL5N6FmCVYK-29" edge="1">
          <mxGeometry width="50" height="50" relative="1" as="geometry">
            <mxPoint x="660" y="2920" as="sourcePoint" />
            <mxPoint x="780" y="2910" as="targetPoint" />
          </mxGeometry>
        </mxCell>
        <mxCell id="5C9xvMvv8BL5N6FmCVYK-38" value="&lt;div style=&quot;text-align: left;&quot;&gt;&lt;span style=&quot;background-color: initial;&quot;&gt;→[0 : 0] rx_enqueue&lt;/span&gt;&lt;/div&gt;" style="text;html=1;strokeColor=none;fillColor=none;align=center;verticalAlign=middle;whiteSpace=wrap;rounded=0;movable=1;resizable=1;rotatable=1;deletable=1;editable=1;locked=0;connectable=1;" parent="1" vertex="1">
          <mxGeometry x="600" y="2890.5" width="120" height="20" as="geometry" />
        </mxCell>
        <mxCell id="5C9xvMvv8BL5N6FmCVYK-39" value="" style="group;strokeColor=default;dashed=1;movable=1;resizable=1;rotatable=1;deletable=1;editable=1;locked=0;connectable=1;" parent="1" vertex="1" connectable="0">
          <mxGeometry x="780" y="2860" width="200" height="81" as="geometry" />
        </mxCell>
        <mxCell id="5C9xvMvv8BL5N6FmCVYK-23" value="→[0 : 0]&lt;span style=&quot;&quot;&gt;&amp;nbsp;&lt;span style=&quot;&quot;&gt; &lt;/span&gt;enqueue&lt;/span&gt;&lt;br&gt;→[0 : 0]&amp;nbsp; dequeue&lt;br&gt;→[7 : 0]&amp;nbsp; enqueue_&lt;span style=&quot;&quot;&gt;&lt;/span&gt;data" style="text;html=1;strokeColor=none;fillColor=none;align=left;verticalAlign=middle;whiteSpace=wrap;rounded=0;movable=1;resizable=1;rotatable=1;deletable=1;editable=1;locked=0;connectable=1;container=0;" parent="5C9xvMvv8BL5N6FmCVYK-39" vertex="1">
          <mxGeometry x="35" width="130" height="50" as="geometry" />
        </mxCell>
        <mxCell id="5C9xvMvv8BL5N6FmCVYK-24" value="&lt;b&gt;UART RX QUEUE Control Signals&lt;/b&gt;" style="text;html=1;strokeColor=none;fillColor=none;align=center;verticalAlign=middle;whiteSpace=wrap;rounded=0;movable=1;resizable=1;rotatable=1;deletable=1;editable=1;locked=0;connectable=1;container=0;" parent="5C9xvMvv8BL5N6FmCVYK-39" vertex="1">
          <mxGeometry x="47.5" y="51" width="105" height="30" as="geometry" />
        </mxCell>
        <mxCell id="5C9xvMvv8BL5N6FmCVYK-25" value="" style="endArrow=none;startArrow=none;html=1;rounded=0;startFill=0;endFill=0;movable=1;resizable=1;rotatable=1;deletable=1;editable=1;locked=0;connectable=1;" parent="5C9xvMvv8BL5N6FmCVYK-39" edge="1">
          <mxGeometry width="50" height="50" relative="1" as="geometry">
            <mxPoint y="50" as="sourcePoint" />
            <mxPoint x="200" y="50" as="targetPoint" />
          </mxGeometry>
        </mxCell>
        <mxCell id="5C9xvMvv8BL5N6FmCVYK-40" value="" style="endArrow=none;html=1;rounded=0;entryX=0;entryY=0.876;entryDx=0;entryDy=0;entryPerimeter=0;movable=1;resizable=1;rotatable=1;deletable=1;editable=1;locked=0;connectable=1;" parent="1" target="5C9xvMvv8BL5N6FmCVYK-17" edge="1">
          <mxGeometry width="50" height="50" relative="1" as="geometry">
            <mxPoint x="980" y="2910" as="sourcePoint" />
            <mxPoint x="1000" y="2960" as="targetPoint" />
          </mxGeometry>
        </mxCell>
        <mxCell id="5C9xvMvv8BL5N6FmCVYK-41" value="" style="endArrow=none;html=1;rounded=0;exitX=1;exitY=0.75;exitDx=0;exitDy=0;movable=1;resizable=1;rotatable=1;deletable=1;editable=1;locked=0;connectable=1;" parent="1" source="5C9xvMvv8BL5N6FmCVYK-22" edge="1">
          <mxGeometry width="50" height="50" relative="1" as="geometry">
            <mxPoint x="390" y="3000" as="sourcePoint" />
            <mxPoint x="750" y="2910" as="targetPoint" />
            <Array as="points">
              <mxPoint x="750" y="2970" />
            </Array>
          </mxGeometry>
        </mxCell>
        <mxCell id="5C9xvMvv8BL5N6FmCVYK-42" value="" style="shape=waypoint;sketch=0;size=6;pointerEvents=1;points=[];fillColor=none;resizable=1;rotatable=1;perimeter=centerPerimeter;snapToPoint=1;movable=1;deletable=1;editable=1;locked=0;connectable=1;" parent="1" vertex="1">
          <mxGeometry x="740" y="2900" width="20" height="20" as="geometry" />
        </mxCell>
        <mxCell id="5C9xvMvv8BL5N6FmCVYK-43" value="&lt;font style=&quot;font-size: 18px;&quot;&gt;UART&lt;br&gt;Control&lt;br&gt;&lt;/font&gt;" style="rounded=0;whiteSpace=wrap;html=1;fontStyle=1;fontSize=12;movable=1;resizable=1;rotatable=1;deletable=1;editable=1;locked=0;connectable=1;" parent="1" vertex="1">
          <mxGeometry x="150" y="2260" width="80" height="400" as="geometry" />
        </mxCell>
        <mxCell id="5C9xvMvv8BL5N6FmCVYK-44" value="" style="endArrow=none;html=1;rounded=0;entryX=0.4;entryY=0.833;entryDx=0;entryDy=0;entryPerimeter=0;exitX=1;exitY=0.5;exitDx=0;exitDy=0;movable=1;resizable=1;rotatable=1;deletable=1;editable=1;locked=0;connectable=1;" parent="1" source="5C9xvMvv8BL5N6FmCVYK-45" target="5C9xvMvv8BL5N6FmCVYK-42" edge="1">
          <mxGeometry width="50" height="50" relative="1" as="geometry">
            <mxPoint x="610" y="2810" as="sourcePoint" />
            <mxPoint x="720" y="2630" as="targetPoint" />
            <Array as="points">
              <mxPoint x="750" y="2810" />
            </Array>
          </mxGeometry>
        </mxCell>
        <mxCell id="5C9xvMvv8BL5N6FmCVYK-45" value="&lt;font style=&quot;font-size: 17px;&quot;&gt;Posedge&lt;br&gt;Gen&lt;/font&gt;" style="rounded=0;whiteSpace=wrap;html=1;fontStyle=1;fontSize=12;movable=1;resizable=1;rotatable=1;deletable=1;editable=1;locked=0;connectable=1;" parent="1" vertex="1">
          <mxGeometry x="520" y="2790" width="80" height="40" as="geometry" />
        </mxCell>
        <mxCell id="5C9xvMvv8BL5N6FmCVYK-46" value="&lt;div style=&quot;text-align: left;&quot;&gt;&lt;span style=&quot;background-color: initial;&quot;&gt;→[0 : 0] rx_dequeue&lt;/span&gt;&lt;/div&gt;" style="text;html=1;strokeColor=none;fillColor=none;align=center;verticalAlign=middle;whiteSpace=wrap;rounded=0;movable=1;resizable=1;rotatable=1;deletable=1;editable=1;locked=0;connectable=1;" parent="1" vertex="1">
          <mxGeometry x="600" y="2790" width="120" height="20" as="geometry" />
        </mxCell>
        <mxCell id="5C9xvMvv8BL5N6FmCVYK-47" value="" style="group;strokeColor=default;dashed=1;movable=1;resizable=1;rotatable=1;deletable=1;editable=1;locked=0;connectable=1;" parent="1" vertex="1" connectable="0">
          <mxGeometry x="1120" y="2860" width="200" height="81" as="geometry" />
        </mxCell>
        <mxCell id="5C9xvMvv8BL5N6FmCVYK-48" value="→[0 : 0]&lt;span style=&quot;&quot;&gt;&amp;nbsp;&lt;span style=&quot;&quot;&gt; &lt;/span&gt;empty&lt;/span&gt;&lt;br&gt;→[0 : 0]&amp;nbsp; full&lt;br&gt;→[7 : 0]&amp;nbsp; queue_head_&lt;span style=&quot;&quot;&gt;&lt;/span&gt;data" style="text;html=1;strokeColor=none;fillColor=none;align=left;verticalAlign=middle;whiteSpace=wrap;rounded=0;movable=1;resizable=1;rotatable=1;deletable=1;editable=1;locked=0;connectable=1;container=0;" parent="5C9xvMvv8BL5N6FmCVYK-47" vertex="1">
          <mxGeometry x="30" width="150" height="50" as="geometry" />
        </mxCell>
        <mxCell id="5C9xvMvv8BL5N6FmCVYK-49" value="&lt;b&gt;UART RX QUEUE&amp;nbsp; State Signals&lt;/b&gt;" style="text;html=1;strokeColor=none;fillColor=none;align=center;verticalAlign=middle;whiteSpace=wrap;rounded=0;movable=1;resizable=1;rotatable=1;deletable=1;editable=1;locked=0;connectable=1;container=0;" parent="5C9xvMvv8BL5N6FmCVYK-47" vertex="1">
          <mxGeometry x="38.75" y="51" width="122.5" height="30" as="geometry" />
        </mxCell>
        <mxCell id="5C9xvMvv8BL5N6FmCVYK-50" value="" style="endArrow=none;startArrow=none;html=1;rounded=0;startFill=0;endFill=0;movable=1;resizable=1;rotatable=1;deletable=1;editable=1;locked=0;connectable=1;" parent="5C9xvMvv8BL5N6FmCVYK-47" edge="1">
          <mxGeometry width="50" height="50" relative="1" as="geometry">
            <mxPoint y="50" as="sourcePoint" />
            <mxPoint x="200" y="50" as="targetPoint" />
          </mxGeometry>
        </mxCell>
        <mxCell id="5C9xvMvv8BL5N6FmCVYK-56" value="" style="group;fillColor=none;strokeColor=default;dashed=1;movable=1;resizable=1;rotatable=1;deletable=1;editable=1;locked=0;connectable=1;" parent="1" vertex="1" connectable="0">
          <mxGeometry x="839.5" y="2671" width="140" height="80" as="geometry" />
        </mxCell>
        <mxCell id="5C9xvMvv8BL5N6FmCVYK-52" value="→[0 : 0]&lt;span style=&quot;&quot;&gt;&amp;nbsp;&lt;span style=&quot;&quot;&gt;&amp;nbsp;sys_&lt;/span&gt;clk&lt;/span&gt;&lt;br&gt;→[0 : 0]&amp;nbsp; sys_rst&lt;br&gt;→[0 : 0]&amp;nbsp; en(1&#39;B1)" style="text;html=1;strokeColor=none;fillColor=none;align=left;verticalAlign=middle;whiteSpace=wrap;rounded=0;movable=1;resizable=1;rotatable=1;deletable=1;editable=1;locked=0;connectable=1;container=0;" parent="5C9xvMvv8BL5N6FmCVYK-56" vertex="1">
          <mxGeometry x="17.5" width="105" height="50" as="geometry" />
        </mxCell>
        <mxCell id="5C9xvMvv8BL5N6FmCVYK-53" value="&lt;b&gt;UART RX QUEUE System Signals&lt;/b&gt;" style="text;html=1;strokeColor=none;fillColor=none;align=center;verticalAlign=middle;whiteSpace=wrap;rounded=0;movable=1;resizable=1;rotatable=1;deletable=1;editable=1;locked=0;connectable=1;container=0;" parent="5C9xvMvv8BL5N6FmCVYK-56" vertex="1">
          <mxGeometry x="17.5" y="50" width="105" height="30" as="geometry" />
        </mxCell>
        <mxCell id="5C9xvMvv8BL5N6FmCVYK-54" value="" style="endArrow=none;startArrow=none;html=1;rounded=0;startFill=0;endFill=0;movable=1;resizable=1;rotatable=1;deletable=1;editable=1;locked=0;connectable=1;" parent="5C9xvMvv8BL5N6FmCVYK-56" edge="1">
          <mxGeometry width="50" height="50" relative="1" as="geometry">
            <mxPoint y="49" as="sourcePoint" />
            <mxPoint x="140" y="49" as="targetPoint" />
          </mxGeometry>
        </mxCell>
        <mxCell id="5C9xvMvv8BL5N6FmCVYK-57" value="" style="endArrow=none;html=1;rounded=0;movable=1;resizable=1;rotatable=1;deletable=1;editable=1;locked=0;connectable=1;" parent="1" edge="1">
          <mxGeometry width="50" height="50" relative="1" as="geometry">
            <mxPoint x="980" y="2720" as="sourcePoint" />
            <mxPoint x="1010" y="2720" as="targetPoint" />
          </mxGeometry>
        </mxCell>
        <mxCell id="5C9xvMvv8BL5N6FmCVYK-58" value="" style="endArrow=none;html=1;rounded=0;exitX=1;exitY=0.876;exitDx=0;exitDy=0;exitPerimeter=0;movable=1;resizable=1;rotatable=1;deletable=1;editable=1;locked=0;connectable=1;" parent="1" source="5C9xvMvv8BL5N6FmCVYK-17" edge="1">
          <mxGeometry width="50" height="50" relative="1" as="geometry">
            <mxPoint x="1160" y="2770" as="sourcePoint" />
            <mxPoint x="1120" y="2910" as="targetPoint" />
          </mxGeometry>
        </mxCell>
        <mxCell id="5C9xvMvv8BL5N6FmCVYK-63" value="" style="group;strokeColor=default;dashed=1;movable=1;resizable=1;rotatable=1;deletable=1;editable=1;locked=0;connectable=1;" parent="1" vertex="1" connectable="0">
          <mxGeometry x="270" y="2560" width="200" height="101" as="geometry" />
        </mxCell>
        <mxCell id="5C9xvMvv8BL5N6FmCVYK-60" value="←[0 : 0]&lt;span style=&quot;&quot;&gt;&amp;nbsp;&lt;span style=&quot;&quot;&gt;&amp;nbsp;rx_queue_&lt;/span&gt;empty&lt;/span&gt;&lt;br&gt;←[0 : 0]&amp;nbsp; rx_queue_full&lt;br&gt;←[7 : 0]&amp;nbsp; rx_queue_head&lt;br&gt;→[0 : 0]&amp;nbsp; rx_dequeue_raw" style="text;html=1;strokeColor=none;fillColor=none;align=left;verticalAlign=middle;whiteSpace=wrap;rounded=0;movable=1;resizable=1;rotatable=1;deletable=1;editable=1;locked=0;connectable=1;container=0;" parent="5C9xvMvv8BL5N6FmCVYK-63" vertex="1">
          <mxGeometry x="30" width="150" height="70" as="geometry" />
        </mxCell>
        <mxCell id="5C9xvMvv8BL5N6FmCVYK-61" value="&lt;b&gt;UART Control &lt;br&gt;RX Signals&lt;/b&gt;" style="text;html=1;strokeColor=none;fillColor=none;align=center;verticalAlign=middle;whiteSpace=wrap;rounded=0;movable=1;resizable=1;rotatable=1;deletable=1;editable=1;locked=0;connectable=1;container=0;" parent="5C9xvMvv8BL5N6FmCVYK-63" vertex="1">
          <mxGeometry x="38.75" y="71" width="122.5" height="30" as="geometry" />
        </mxCell>
        <mxCell id="5C9xvMvv8BL5N6FmCVYK-62" value="" style="endArrow=none;startArrow=none;html=1;rounded=0;startFill=0;endFill=0;movable=1;resizable=1;rotatable=1;deletable=1;editable=1;locked=0;connectable=1;" parent="5C9xvMvv8BL5N6FmCVYK-63" edge="1">
          <mxGeometry width="50" height="50" relative="1" as="geometry">
            <mxPoint y="70" as="sourcePoint" />
            <mxPoint x="200" y="70" as="targetPoint" />
          </mxGeometry>
        </mxCell>
        <mxCell id="5C9xvMvv8BL5N6FmCVYK-64" value="" style="endArrow=none;html=1;rounded=0;entryX=0;entryY=0.5;entryDx=0;entryDy=0;movable=1;resizable=1;rotatable=1;deletable=1;editable=1;locked=0;connectable=1;" parent="1" target="5C9xvMvv8BL5N6FmCVYK-45" edge="1">
          <mxGeometry width="50" height="50" relative="1" as="geometry">
            <mxPoint x="470" y="2630" as="sourcePoint" />
            <mxPoint x="580" y="2590" as="targetPoint" />
            <Array as="points">
              <mxPoint x="500" y="2630" />
              <mxPoint x="500" y="2810" />
            </Array>
          </mxGeometry>
        </mxCell>
        <mxCell id="5C9xvMvv8BL5N6FmCVYK-65" value="" style="endArrow=none;html=1;rounded=0;movable=1;resizable=1;rotatable=1;deletable=1;editable=1;locked=0;connectable=1;" parent="1" edge="1">
          <mxGeometry width="50" height="50" relative="1" as="geometry">
            <mxPoint x="500" y="2630" as="sourcePoint" />
            <mxPoint x="1320" y="2910" as="targetPoint" />
            <Array as="points">
              <mxPoint x="1350" y="2630" />
              <mxPoint x="1350" y="2910" />
            </Array>
          </mxGeometry>
        </mxCell>
        <mxCell id="5C9xvMvv8BL5N6FmCVYK-66" value="" style="shape=waypoint;sketch=0;size=6;pointerEvents=1;points=[];fillColor=none;resizable=1;rotatable=1;perimeter=centerPerimeter;snapToPoint=1;movable=1;deletable=1;editable=1;locked=0;connectable=1;" parent="1" vertex="1">
          <mxGeometry x="490" y="2620" width="20" height="20" as="geometry" />
        </mxCell>
        <mxCell id="5C9xvMvv8BL5N6FmCVYK-68" value="&lt;font style=&quot;font-size: 18px;&quot;&gt;TX&lt;br&gt;Queue&lt;/font&gt;" style="rounded=0;whiteSpace=wrap;html=1;fontStyle=1;fontSize=12;movable=1;resizable=1;rotatable=1;deletable=1;editable=1;locked=0;connectable=1;" parent="1" vertex="1">
          <mxGeometry x="1010" y="2020" width="80" height="250" as="geometry" />
        </mxCell>
        <mxCell id="5C9xvMvv8BL5N6FmCVYK-78" value="" style="group;strokeColor=default;dashed=1;movable=1;resizable=1;rotatable=1;deletable=1;editable=1;locked=0;connectable=1;" parent="1" vertex="1" connectable="0">
          <mxGeometry x="780" y="2000" width="200" height="81" as="geometry" />
        </mxCell>
        <mxCell id="5C9xvMvv8BL5N6FmCVYK-79" value="→[0 : 0]&lt;span style=&quot;&quot;&gt;&amp;nbsp;&lt;span style=&quot;&quot;&gt; &lt;/span&gt;enqueue&lt;/span&gt;&lt;br&gt;→[0 : 0]&amp;nbsp; dequeue&lt;br&gt;→[7 : 0]&amp;nbsp; enqueue_&lt;span style=&quot;&quot;&gt;&lt;/span&gt;data" style="text;html=1;strokeColor=none;fillColor=none;align=left;verticalAlign=middle;whiteSpace=wrap;rounded=0;movable=1;resizable=1;rotatable=1;deletable=1;editable=1;locked=0;connectable=1;container=0;" parent="5C9xvMvv8BL5N6FmCVYK-78" vertex="1">
          <mxGeometry x="35" width="130" height="50" as="geometry" />
        </mxCell>
        <mxCell id="5C9xvMvv8BL5N6FmCVYK-80" value="&lt;b&gt;UART TX QUEUE Control Signals&lt;/b&gt;" style="text;html=1;strokeColor=none;fillColor=none;align=center;verticalAlign=middle;whiteSpace=wrap;rounded=0;movable=1;resizable=1;rotatable=1;deletable=1;editable=1;locked=0;connectable=1;container=0;" parent="5C9xvMvv8BL5N6FmCVYK-78" vertex="1">
          <mxGeometry x="47.5" y="51" width="105" height="30" as="geometry" />
        </mxCell>
        <mxCell id="5C9xvMvv8BL5N6FmCVYK-81" value="" style="endArrow=none;startArrow=none;html=1;rounded=0;startFill=0;endFill=0;movable=1;resizable=1;rotatable=1;deletable=1;editable=1;locked=0;connectable=1;" parent="5C9xvMvv8BL5N6FmCVYK-78" edge="1">
          <mxGeometry width="50" height="50" relative="1" as="geometry">
            <mxPoint y="50" as="sourcePoint" />
            <mxPoint x="200" y="50" as="targetPoint" />
          </mxGeometry>
        </mxCell>
        <mxCell id="5C9xvMvv8BL5N6FmCVYK-82" value="" style="endArrow=none;html=1;rounded=0;movable=1;resizable=1;rotatable=1;deletable=1;editable=1;locked=0;connectable=1;" parent="1" edge="1">
          <mxGeometry width="50" height="50" relative="1" as="geometry">
            <mxPoint x="980" y="2240" as="sourcePoint" />
            <mxPoint x="1010" y="2240" as="targetPoint" />
          </mxGeometry>
        </mxCell>
        <mxCell id="5C9xvMvv8BL5N6FmCVYK-86" value="&lt;font style=&quot;font-size: 17px;&quot;&gt;Posedge&lt;br&gt;Gen&lt;/font&gt;" style="rounded=0;whiteSpace=wrap;html=1;fontStyle=1;fontSize=12;movable=1;resizable=1;rotatable=1;deletable=1;editable=1;locked=0;connectable=1;" parent="1" vertex="1">
          <mxGeometry x="520" y="2130" width="80" height="40" as="geometry" />
        </mxCell>
        <mxCell id="5C9xvMvv8BL5N6FmCVYK-87" value="&lt;div style=&quot;text-align: left;&quot;&gt;&lt;span style=&quot;background-color: initial;&quot;&gt;→[0 : 0] tx_enqueue&lt;/span&gt;&lt;/div&gt;" style="text;html=1;strokeColor=none;fillColor=none;align=center;verticalAlign=middle;whiteSpace=wrap;rounded=0;movable=1;resizable=1;rotatable=1;deletable=1;editable=1;locked=0;connectable=1;" parent="1" vertex="1">
          <mxGeometry x="600" y="2130" width="120" height="20" as="geometry" />
        </mxCell>
        <mxCell id="5C9xvMvv8BL5N6FmCVYK-88" value="" style="group;strokeColor=default;dashed=1;movable=1;resizable=1;rotatable=1;deletable=1;editable=1;locked=0;connectable=1;" parent="1" vertex="1" connectable="0">
          <mxGeometry x="1120" y="2000" width="200" height="81" as="geometry" />
        </mxCell>
        <mxCell id="5C9xvMvv8BL5N6FmCVYK-89" value="→[0 : 0]&lt;span style=&quot;&quot;&gt;&amp;nbsp;&lt;span style=&quot;&quot;&gt; &lt;/span&gt;empty&lt;/span&gt;&lt;br&gt;→[0 : 0]&amp;nbsp; full&lt;br&gt;→[7 : 0]&amp;nbsp; queue_head_&lt;span style=&quot;&quot;&gt;&lt;/span&gt;data" style="text;html=1;strokeColor=none;fillColor=none;align=left;verticalAlign=middle;whiteSpace=wrap;rounded=0;movable=1;resizable=1;rotatable=1;deletable=1;editable=1;locked=0;connectable=1;container=0;" parent="5C9xvMvv8BL5N6FmCVYK-88" vertex="1">
          <mxGeometry x="30" width="150" height="50" as="geometry" />
        </mxCell>
        <mxCell id="5C9xvMvv8BL5N6FmCVYK-90" value="&lt;b&gt;UART TX QUEUE&amp;nbsp; State Signals&lt;/b&gt;" style="text;html=1;strokeColor=none;fillColor=none;align=center;verticalAlign=middle;whiteSpace=wrap;rounded=0;movable=1;resizable=1;rotatable=1;deletable=1;editable=1;locked=0;connectable=1;container=0;" parent="5C9xvMvv8BL5N6FmCVYK-88" vertex="1">
          <mxGeometry x="38.75" y="51" width="122.5" height="30" as="geometry" />
        </mxCell>
        <mxCell id="5C9xvMvv8BL5N6FmCVYK-91" value="" style="endArrow=none;startArrow=none;html=1;rounded=0;startFill=0;endFill=0;movable=1;resizable=1;rotatable=1;deletable=1;editable=1;locked=0;connectable=1;" parent="5C9xvMvv8BL5N6FmCVYK-88" edge="1">
          <mxGeometry width="50" height="50" relative="1" as="geometry">
            <mxPoint y="50" as="sourcePoint" />
            <mxPoint x="200" y="50" as="targetPoint" />
          </mxGeometry>
        </mxCell>
        <mxCell id="5C9xvMvv8BL5N6FmCVYK-92" value="" style="group;fillColor=none;strokeColor=default;dashed=1;" parent="1" vertex="1" connectable="0">
          <mxGeometry x="900" y="1271" width="140" height="80" as="geometry" />
        </mxCell>
        <mxCell id="5C9xvMvv8BL5N6FmCVYK-93" value="→[0 : 0]&lt;span style=&quot;&quot;&gt;&amp;nbsp;&lt;span style=&quot;&quot;&gt;&amp;nbsp;sys_&lt;/span&gt;clk&lt;/span&gt;&lt;br&gt;→[0 : 0]&amp;nbsp; sys_rst" style="text;html=1;strokeColor=none;fillColor=none;align=left;verticalAlign=middle;whiteSpace=wrap;rounded=0;movable=1;resizable=1;rotatable=1;deletable=1;editable=1;locked=0;connectable=1;container=0;" parent="5C9xvMvv8BL5N6FmCVYK-92" vertex="1">
          <mxGeometry x="17.5" width="105" height="50" as="geometry" />
        </mxCell>
        <mxCell id="5C9xvMvv8BL5N6FmCVYK-94" value="&lt;b&gt;PKernel System Signals&lt;/b&gt;" style="text;html=1;strokeColor=none;fillColor=none;align=center;verticalAlign=middle;whiteSpace=wrap;rounded=0;movable=1;resizable=1;rotatable=1;deletable=1;editable=1;locked=0;connectable=1;container=0;" parent="5C9xvMvv8BL5N6FmCVYK-92" vertex="1">
          <mxGeometry x="17.5" y="50" width="105" height="30" as="geometry" />
        </mxCell>
        <mxCell id="5C9xvMvv8BL5N6FmCVYK-95" value="" style="endArrow=none;startArrow=none;html=1;rounded=0;startFill=0;endFill=0;movable=1;resizable=1;rotatable=1;deletable=1;editable=1;locked=0;connectable=1;" parent="5C9xvMvv8BL5N6FmCVYK-92" edge="1">
          <mxGeometry width="50" height="50" relative="1" as="geometry">
            <mxPoint y="49" as="sourcePoint" />
            <mxPoint x="140" y="49" as="targetPoint" />
          </mxGeometry>
        </mxCell>
        <mxCell id="5C9xvMvv8BL5N6FmCVYK-96" value="" style="endArrow=none;html=1;rounded=0;entryX=0;entryY=0.12;entryDx=0;entryDy=0;entryPerimeter=0;movable=1;resizable=1;rotatable=1;deletable=1;editable=1;locked=0;connectable=1;" parent="1" target="5C9xvMvv8BL5N6FmCVYK-68" edge="1">
          <mxGeometry width="50" height="50" relative="1" as="geometry">
            <mxPoint x="980" y="2050" as="sourcePoint" />
            <mxPoint x="1010" y="2049" as="targetPoint" />
          </mxGeometry>
        </mxCell>
        <mxCell id="5C9xvMvv8BL5N6FmCVYK-97" value="" style="endArrow=none;html=1;rounded=0;exitX=1;exitY=0.12;exitDx=0;exitDy=0;exitPerimeter=0;movable=1;resizable=1;rotatable=1;deletable=1;editable=1;locked=0;connectable=1;" parent="1" source="5C9xvMvv8BL5N6FmCVYK-68" edge="1">
          <mxGeometry width="50" height="50" relative="1" as="geometry">
            <mxPoint x="1210" y="1979" as="sourcePoint" />
            <mxPoint x="1120" y="2050" as="targetPoint" />
          </mxGeometry>
        </mxCell>
        <mxCell id="5C9xvMvv8BL5N6FmCVYK-98" value="" style="group;strokeColor=default;dashed=1;movable=1;resizable=1;rotatable=1;deletable=1;editable=1;locked=0;connectable=1;" parent="1" vertex="1" connectable="0">
          <mxGeometry x="270" y="2260" width="200" height="101" as="geometry" />
        </mxCell>
        <mxCell id="5C9xvMvv8BL5N6FmCVYK-99" value="←[0 : 0]&lt;span style=&quot;&quot;&gt;&amp;nbsp;&lt;span style=&quot;&quot;&gt;&amp;nbsp;tx_queue_&lt;/span&gt;empty&lt;/span&gt;&lt;br&gt;←[0 : 0]&amp;nbsp; tx_queue_full&lt;br&gt;→[7 : 0]&amp;nbsp; tx_enqueue_data&lt;br&gt;→[0 : 0]&amp;nbsp; tx_enqueue_raw" style="text;html=1;strokeColor=none;fillColor=none;align=left;verticalAlign=middle;whiteSpace=wrap;rounded=0;movable=1;resizable=1;rotatable=1;deletable=1;editable=1;locked=0;connectable=1;container=0;" parent="5C9xvMvv8BL5N6FmCVYK-98" vertex="1">
          <mxGeometry x="30" width="150" height="70" as="geometry" />
        </mxCell>
        <mxCell id="5C9xvMvv8BL5N6FmCVYK-100" value="&lt;b style=&quot;border-color: var(--border-color);&quot;&gt;UART Control&lt;br style=&quot;border-color: var(--border-color);&quot;&gt;TX Signals&lt;/b&gt;" style="text;html=1;strokeColor=none;fillColor=none;align=center;verticalAlign=middle;whiteSpace=wrap;rounded=0;movable=1;resizable=1;rotatable=1;deletable=1;editable=1;locked=0;connectable=1;container=0;" parent="5C9xvMvv8BL5N6FmCVYK-98" vertex="1">
          <mxGeometry x="38.75" y="71" width="122.5" height="30" as="geometry" />
        </mxCell>
        <mxCell id="5C9xvMvv8BL5N6FmCVYK-101" value="" style="endArrow=none;startArrow=none;html=1;rounded=0;startFill=0;endFill=0;movable=1;resizable=1;rotatable=1;deletable=1;editable=1;locked=0;connectable=1;" parent="5C9xvMvv8BL5N6FmCVYK-98" edge="1">
          <mxGeometry width="50" height="50" relative="1" as="geometry">
            <mxPoint y="70" as="sourcePoint" />
            <mxPoint x="200" y="70" as="targetPoint" />
          </mxGeometry>
        </mxCell>
        <mxCell id="5C9xvMvv8BL5N6FmCVYK-105" value="" style="endArrow=none;html=1;rounded=0;movable=1;resizable=1;rotatable=1;deletable=1;editable=1;locked=0;connectable=1;" parent="1" edge="1">
          <mxGeometry width="50" height="50" relative="1" as="geometry">
            <mxPoint x="520" y="2150" as="sourcePoint" />
            <mxPoint x="470" y="2330" as="targetPoint" />
            <Array as="points">
              <mxPoint x="500" y="2150" />
              <mxPoint x="500" y="2330" />
            </Array>
          </mxGeometry>
        </mxCell>
        <mxCell id="5C9xvMvv8BL5N6FmCVYK-106" value="" style="endArrow=none;html=1;rounded=0;exitX=1;exitY=0.5;exitDx=0;exitDy=0;movable=1;resizable=1;rotatable=1;deletable=1;editable=1;locked=0;connectable=1;" parent="1" edge="1">
          <mxGeometry width="50" height="50" relative="1" as="geometry">
            <mxPoint x="600" y="2150" as="sourcePoint" />
            <mxPoint x="750" y="2050" as="targetPoint" />
            <Array as="points">
              <mxPoint x="750" y="2150" />
            </Array>
          </mxGeometry>
        </mxCell>
        <mxCell id="5C9xvMvv8BL5N6FmCVYK-108" value="" style="endArrow=none;html=1;rounded=0;exitX=1;exitY=0.5;exitDx=0;exitDy=0;movable=1;resizable=1;rotatable=1;deletable=1;editable=1;locked=0;connectable=1;" parent="1" edge="1">
          <mxGeometry width="50" height="50" relative="1" as="geometry">
            <mxPoint x="600" y="2050" as="sourcePoint" />
            <mxPoint x="780" y="2050" as="targetPoint" />
          </mxGeometry>
        </mxCell>
        <mxCell id="5C9xvMvv8BL5N6FmCVYK-109" value="" style="shape=waypoint;sketch=0;size=6;pointerEvents=1;points=[];fillColor=none;resizable=1;rotatable=1;perimeter=centerPerimeter;snapToPoint=1;movable=1;deletable=1;editable=1;locked=0;connectable=1;" parent="1" vertex="1">
          <mxGeometry x="740" y="2040" width="20" height="20" as="geometry" />
        </mxCell>
        <mxCell id="5C9xvMvv8BL5N6FmCVYK-110" value="" style="group;fillColor=none;strokeColor=default;dashed=1;movable=1;resizable=1;rotatable=1;deletable=1;editable=1;locked=0;connectable=1;" parent="1" vertex="1" connectable="0">
          <mxGeometry x="840" y="2191" width="140" height="80" as="geometry" />
        </mxCell>
        <mxCell id="5C9xvMvv8BL5N6FmCVYK-111" value="→[0 : 0]&lt;span style=&quot;&quot;&gt;&amp;nbsp;&lt;span style=&quot;&quot;&gt;&amp;nbsp;sys_&lt;/span&gt;clk&lt;/span&gt;&lt;br&gt;→[0 : 0]&amp;nbsp; sys_rst&lt;br&gt;→[0 : 0]&amp;nbsp; en(1&#39;B1)" style="text;html=1;strokeColor=none;fillColor=none;align=left;verticalAlign=middle;whiteSpace=wrap;rounded=0;movable=1;resizable=1;rotatable=1;deletable=1;editable=1;locked=0;connectable=1;container=0;" parent="5C9xvMvv8BL5N6FmCVYK-110" vertex="1">
          <mxGeometry x="17.5" width="105" height="50" as="geometry" />
        </mxCell>
        <mxCell id="5C9xvMvv8BL5N6FmCVYK-112" value="&lt;b&gt;UART TX QUEUE System Signals&lt;/b&gt;" style="text;html=1;strokeColor=none;fillColor=none;align=center;verticalAlign=middle;whiteSpace=wrap;rounded=0;movable=1;resizable=1;rotatable=1;deletable=1;editable=1;locked=0;connectable=1;container=0;" parent="5C9xvMvv8BL5N6FmCVYK-110" vertex="1">
          <mxGeometry x="17.5" y="50" width="105" height="30" as="geometry" />
        </mxCell>
        <mxCell id="5C9xvMvv8BL5N6FmCVYK-113" value="" style="endArrow=none;startArrow=none;html=1;rounded=0;startFill=0;endFill=0;movable=1;resizable=1;rotatable=1;deletable=1;editable=1;locked=0;connectable=1;" parent="5C9xvMvv8BL5N6FmCVYK-110" edge="1">
          <mxGeometry width="50" height="50" relative="1" as="geometry">
            <mxPoint y="49" as="sourcePoint" />
            <mxPoint x="140" y="49" as="targetPoint" />
          </mxGeometry>
        </mxCell>
        <mxCell id="5C9xvMvv8BL5N6FmCVYK-114" value="&lt;font style=&quot;font-size: 18px;&quot;&gt;UART&lt;br&gt;TX&lt;/font&gt;" style="rounded=0;whiteSpace=wrap;html=1;fontStyle=1;fontSize=12;movable=1;resizable=1;rotatable=1;deletable=1;editable=1;locked=0;connectable=1;" parent="1" vertex="1">
          <mxGeometry x="300" y="1960" width="80" height="120" as="geometry" />
        </mxCell>
        <mxCell id="5C9xvMvv8BL5N6FmCVYK-115" value="&lt;font style=&quot;font-size: 17px;&quot;&gt;Posedge&lt;br&gt;Gen&lt;/font&gt;" style="rounded=0;whiteSpace=wrap;html=1;fontStyle=1;fontSize=12;movable=1;resizable=1;rotatable=1;deletable=1;editable=1;locked=0;connectable=1;" parent="1" vertex="1">
          <mxGeometry x="520" y="2030" width="80" height="40" as="geometry" />
        </mxCell>
        <mxCell id="5C9xvMvv8BL5N6FmCVYK-116" value="&lt;div style=&quot;text-align: left;&quot;&gt;&lt;span style=&quot;background-color: initial;&quot;&gt;→[0 : 0] tx_dequeue&lt;/span&gt;&lt;/div&gt;" style="text;html=1;strokeColor=none;fillColor=none;align=center;verticalAlign=middle;whiteSpace=wrap;rounded=0;movable=1;resizable=1;rotatable=1;deletable=1;editable=1;locked=0;connectable=1;" parent="1" vertex="1">
          <mxGeometry x="600" y="2030" width="120" height="20" as="geometry" />
        </mxCell>
        <mxCell id="5C9xvMvv8BL5N6FmCVYK-117" value="" style="endArrow=none;html=1;rounded=0;exitX=1;exitY=0.75;exitDx=0;exitDy=0;entryX=0;entryY=0.5;entryDx=0;entryDy=0;movable=1;resizable=1;rotatable=1;deletable=1;editable=1;locked=0;connectable=1;" parent="1" source="5C9xvMvv8BL5N6FmCVYK-114" target="5C9xvMvv8BL5N6FmCVYK-115" edge="1">
          <mxGeometry width="50" height="50" relative="1" as="geometry">
            <mxPoint x="480" y="2010" as="sourcePoint" />
            <mxPoint x="530" y="1960" as="targetPoint" />
          </mxGeometry>
        </mxCell>
        <mxCell id="5C9xvMvv8BL5N6FmCVYK-118" value="&lt;div style=&quot;text-align: left;&quot;&gt;&lt;span style=&quot;background-color: initial;&quot;&gt;→[0 : 0] transmitted&lt;/span&gt;&lt;/div&gt;" style="text;html=1;strokeColor=none;fillColor=none;align=center;verticalAlign=middle;whiteSpace=wrap;rounded=0;movable=1;resizable=1;rotatable=1;deletable=1;editable=1;locked=0;connectable=1;" parent="1" vertex="1">
          <mxGeometry x="380" y="2031" width="110" height="20" as="geometry" />
        </mxCell>
        <mxCell id="5C9xvMvv8BL5N6FmCVYK-119" value="" style="endArrow=none;html=1;rounded=0;movable=1;resizable=1;rotatable=1;deletable=1;editable=1;locked=0;connectable=1;" parent="1" edge="1">
          <mxGeometry width="50" height="50" relative="1" as="geometry">
            <mxPoint x="500" y="2330" as="sourcePoint" />
            <mxPoint x="1320" y="2050" as="targetPoint" />
            <Array as="points">
              <mxPoint x="1350" y="2330" />
              <mxPoint x="1350" y="2050" />
            </Array>
          </mxGeometry>
        </mxCell>
        <mxCell id="5C9xvMvv8BL5N6FmCVYK-120" value="" style="shape=waypoint;sketch=0;size=6;pointerEvents=1;points=[];fillColor=none;resizable=1;rotatable=1;perimeter=centerPerimeter;snapToPoint=1;movable=1;deletable=1;editable=1;locked=0;connectable=1;" parent="1" vertex="1">
          <mxGeometry x="490" y="2320" width="20" height="20" as="geometry" />
        </mxCell>
        <mxCell id="5C9xvMvv8BL5N6FmCVYK-123" value="" style="endArrow=none;html=1;rounded=0;exitX=1;exitY=0.25;exitDx=0;exitDy=0;movable=1;resizable=1;rotatable=1;deletable=1;editable=1;locked=0;connectable=1;" parent="1" source="5C9xvMvv8BL5N6FmCVYK-114" edge="1">
          <mxGeometry width="50" height="50" relative="1" as="geometry">
            <mxPoint x="430" y="1990" as="sourcePoint" />
            <mxPoint x="530" y="1990" as="targetPoint" />
          </mxGeometry>
        </mxCell>
        <mxCell id="5C9xvMvv8BL5N6FmCVYK-124" value="←[7 : 0]&amp;nbsp;&amp;nbsp;tx_queue_head" style="text;html=1;strokeColor=none;fillColor=none;align=center;verticalAlign=middle;whiteSpace=wrap;rounded=0;movable=1;resizable=1;rotatable=1;deletable=1;editable=1;locked=0;connectable=1;" parent="1" vertex="1">
          <mxGeometry x="379" y="1971" width="140" height="21" as="geometry" />
        </mxCell>
        <mxCell id="5C9xvMvv8BL5N6FmCVYK-125" value="" style="endArrow=none;html=1;rounded=0;movable=1;resizable=1;rotatable=1;deletable=1;editable=1;locked=0;connectable=1;" parent="1" edge="1">
          <mxGeometry width="50" height="50" relative="1" as="geometry">
            <mxPoint x="530" y="1990" as="sourcePoint" />
            <mxPoint x="1350" y="2050" as="targetPoint" />
            <Array as="points">
              <mxPoint x="1350" y="1990" />
            </Array>
          </mxGeometry>
        </mxCell>
        <mxCell id="5C9xvMvv8BL5N6FmCVYK-126" value="" style="shape=waypoint;sketch=0;size=6;pointerEvents=1;points=[];fillColor=none;resizable=1;rotatable=1;perimeter=centerPerimeter;snapToPoint=1;movable=1;deletable=1;editable=1;locked=0;connectable=1;" parent="1" vertex="1">
          <mxGeometry x="1340" y="2040" width="20" height="20" as="geometry" />
        </mxCell>
        <mxCell id="5C9xvMvv8BL5N6FmCVYK-127" value="" style="endArrow=none;html=1;rounded=0;exitX=1;exitY=0.5;exitDx=0;exitDy=0;movable=1;resizable=1;rotatable=1;deletable=1;editable=1;locked=0;connectable=1;" parent="1" source="5C9xvMvv8BL5N6FmCVYK-114" edge="1">
          <mxGeometry width="50" height="50" relative="1" as="geometry">
            <mxPoint x="550" y="1970" as="sourcePoint" />
            <mxPoint x="750" y="1990" as="targetPoint" />
            <Array as="points">
              <mxPoint x="750" y="2020" />
            </Array>
          </mxGeometry>
        </mxCell>
        <mxCell id="5C9xvMvv8BL5N6FmCVYK-128" value="←[0 : 0]&amp;nbsp;&amp;nbsp;ready" style="text;html=1;strokeColor=none;fillColor=none;align=center;verticalAlign=middle;whiteSpace=wrap;rounded=0;movable=1;resizable=1;rotatable=1;deletable=1;editable=1;locked=0;connectable=1;" parent="1" vertex="1">
          <mxGeometry x="377" y="2001" width="91" height="20" as="geometry" />
        </mxCell>
        <mxCell id="5C9xvMvv8BL5N6FmCVYK-129" value="" style="shape=waypoint;sketch=0;size=6;pointerEvents=1;points=[];fillColor=none;resizable=1;rotatable=1;perimeter=centerPerimeter;snapToPoint=1;movable=1;deletable=1;editable=1;locked=0;connectable=1;" parent="1" vertex="1">
          <mxGeometry x="740" y="1981" width="20" height="20" as="geometry" />
        </mxCell>
        <mxCell id="5C9xvMvv8BL5N6FmCVYK-130" value="" style="group;strokeColor=default;dashed=1;movable=1;resizable=1;rotatable=1;deletable=1;editable=1;locked=0;connectable=1;" parent="1" vertex="1" connectable="0">
          <mxGeometry x="270" y="2430" width="200" height="80" as="geometry" />
        </mxCell>
        <mxCell id="5C9xvMvv8BL5N6FmCVYK-131" value="&lt;b&gt;UART Interface&lt;/b&gt;" style="text;html=1;strokeColor=none;fillColor=none;align=center;verticalAlign=middle;whiteSpace=wrap;rounded=0;movable=1;resizable=1;rotatable=1;deletable=1;editable=1;locked=0;connectable=1;container=0;" parent="5C9xvMvv8BL5N6FmCVYK-130" vertex="1">
          <mxGeometry x="10" y="60" width="180" height="20" as="geometry" />
        </mxCell>
        <mxCell id="5C9xvMvv8BL5N6FmCVYK-132" value="" style="endArrow=none;startArrow=none;html=1;rounded=0;startFill=0;endFill=0;movable=1;resizable=1;rotatable=1;deletable=1;editable=1;locked=0;connectable=1;" parent="5C9xvMvv8BL5N6FmCVYK-130" edge="1">
          <mxGeometry width="50" height="50" relative="1" as="geometry">
            <mxPoint y="60" as="sourcePoint" />
            <mxPoint x="200" y="60" as="targetPoint" />
          </mxGeometry>
        </mxCell>
        <mxCell id="5C9xvMvv8BL5N6FmCVYK-133" value="←[31:0]&lt;span style=&quot;&quot;&gt;&amp;nbsp;&lt;/span&gt;interface_addr&lt;br&gt;→[31:0] interface_rdata&lt;br&gt;←[31:0] interface_wdata&lt;br&gt;←[0 : 0] interface_we" style="text;html=1;strokeColor=none;fillColor=none;align=left;verticalAlign=middle;whiteSpace=wrap;rounded=0;movable=1;resizable=1;rotatable=1;deletable=1;editable=1;locked=0;connectable=1;container=0;" parent="5C9xvMvv8BL5N6FmCVYK-130" vertex="1">
          <mxGeometry x="30" width="140" height="60" as="geometry" />
        </mxCell>
        <mxCell id="5C9xvMvv8BL5N6FmCVYK-134" value="" style="endArrow=none;html=1;rounded=0;movable=1;resizable=1;rotatable=1;deletable=1;editable=1;locked=0;connectable=1;" parent="1" edge="1">
          <mxGeometry width="50" height="50" relative="1" as="geometry">
            <mxPoint x="230" y="2330" as="sourcePoint" />
            <mxPoint x="270" y="2330" as="targetPoint" />
          </mxGeometry>
        </mxCell>
        <mxCell id="5C9xvMvv8BL5N6FmCVYK-136" value="" style="endArrow=none;html=1;rounded=0;movable=1;resizable=1;rotatable=1;deletable=1;editable=1;locked=0;connectable=1;" parent="1" edge="1">
          <mxGeometry width="50" height="50" relative="1" as="geometry">
            <mxPoint x="230" y="2490" as="sourcePoint" />
            <mxPoint x="270" y="2490" as="targetPoint" />
          </mxGeometry>
        </mxCell>
        <mxCell id="5C9xvMvv8BL5N6FmCVYK-137" value="" style="endArrow=none;html=1;rounded=0;movable=1;resizable=1;rotatable=1;deletable=1;editable=1;locked=0;connectable=1;" parent="1" edge="1">
          <mxGeometry width="50" height="50" relative="1" as="geometry">
            <mxPoint x="230" y="2629.74" as="sourcePoint" />
            <mxPoint x="270" y="2629.74" as="targetPoint" />
          </mxGeometry>
        </mxCell>
        <mxCell id="5C9xvMvv8BL5N6FmCVYK-142" value="" style="group;strokeColor=default;dashed=1;movable=1;resizable=1;rotatable=1;deletable=1;editable=1;locked=0;connectable=1;" parent="1" vertex="1" connectable="0">
          <mxGeometry x="-30" y="2451" width="140" height="70" as="geometry" />
        </mxCell>
        <mxCell id="5C9xvMvv8BL5N6FmCVYK-139" value="→[0 : 0]&lt;span style=&quot;&quot;&gt;&amp;nbsp;&lt;span style=&quot;&quot;&gt;&amp;nbsp;sys_&lt;/span&gt;clk&lt;/span&gt;&lt;br&gt;→[0 : 0]&amp;nbsp; sys_rst" style="text;html=1;strokeColor=none;fillColor=none;align=left;verticalAlign=middle;whiteSpace=wrap;rounded=0;movable=1;resizable=1;rotatable=1;deletable=1;editable=1;locked=0;connectable=1;container=0;" parent="5C9xvMvv8BL5N6FmCVYK-142" vertex="1">
          <mxGeometry x="23.75" width="92.5" height="40" as="geometry" />
        </mxCell>
        <mxCell id="5C9xvMvv8BL5N6FmCVYK-140" value="&lt;b&gt;UART Control System Signals&lt;/b&gt;" style="text;html=1;strokeColor=none;fillColor=none;align=center;verticalAlign=middle;whiteSpace=wrap;rounded=0;movable=1;resizable=1;rotatable=1;deletable=1;editable=1;locked=0;connectable=1;container=0;" parent="5C9xvMvv8BL5N6FmCVYK-142" vertex="1">
          <mxGeometry x="17.5" y="40" width="105" height="30" as="geometry" />
        </mxCell>
        <mxCell id="5C9xvMvv8BL5N6FmCVYK-141" value="" style="endArrow=none;startArrow=none;html=1;rounded=0;startFill=0;endFill=0;movable=1;resizable=1;rotatable=1;deletable=1;editable=1;locked=0;connectable=1;" parent="5C9xvMvv8BL5N6FmCVYK-142" edge="1">
          <mxGeometry width="50" height="50" relative="1" as="geometry">
            <mxPoint y="39" as="sourcePoint" />
            <mxPoint x="140" y="39" as="targetPoint" />
          </mxGeometry>
        </mxCell>
        <mxCell id="5C9xvMvv8BL5N6FmCVYK-143" value="" style="endArrow=none;html=1;rounded=0;entryX=0;entryY=0.575;entryDx=0;entryDy=0;entryPerimeter=0;movable=1;resizable=1;rotatable=1;deletable=1;editable=1;locked=0;connectable=1;" parent="1" target="5C9xvMvv8BL5N6FmCVYK-43" edge="1">
          <mxGeometry width="50" height="50" relative="1" as="geometry">
            <mxPoint x="110" y="2490" as="sourcePoint" />
            <mxPoint x="-130" y="2540" as="targetPoint" />
          </mxGeometry>
        </mxCell>
        <mxCell id="5C9xvMvv8BL5N6FmCVYK-144" value="" style="group;strokeColor=default;dashed=1;movable=1;resizable=1;rotatable=1;deletable=1;editable=1;locked=0;connectable=1;" parent="1" vertex="1" connectable="0">
          <mxGeometry x="90" y="2051" width="140" height="70" as="geometry" />
        </mxCell>
        <mxCell id="5C9xvMvv8BL5N6FmCVYK-145" value="→[0 : 0]&lt;span style=&quot;&quot;&gt;&amp;nbsp;&lt;span style=&quot;&quot;&gt;&amp;nbsp;sys_&lt;/span&gt;clk&lt;/span&gt;&lt;br&gt;→[0 : 0]&amp;nbsp; sys_rst" style="text;html=1;strokeColor=none;fillColor=none;align=left;verticalAlign=middle;whiteSpace=wrap;rounded=0;movable=1;resizable=1;rotatable=1;deletable=1;editable=1;locked=0;connectable=1;container=0;" parent="5C9xvMvv8BL5N6FmCVYK-144" vertex="1">
          <mxGeometry x="23.75" width="92.5" height="40" as="geometry" />
        </mxCell>
        <mxCell id="5C9xvMvv8BL5N6FmCVYK-146" value="&lt;b&gt;UART TX System Signals&lt;/b&gt;" style="text;html=1;strokeColor=none;fillColor=none;align=center;verticalAlign=middle;whiteSpace=wrap;rounded=0;movable=1;resizable=1;rotatable=1;deletable=1;editable=1;locked=0;connectable=1;container=0;" parent="5C9xvMvv8BL5N6FmCVYK-144" vertex="1">
          <mxGeometry x="17.5" y="40" width="105" height="30" as="geometry" />
        </mxCell>
        <mxCell id="5C9xvMvv8BL5N6FmCVYK-147" value="" style="endArrow=none;startArrow=none;html=1;rounded=0;startFill=0;endFill=0;movable=1;resizable=1;rotatable=1;deletable=1;editable=1;locked=0;connectable=1;" parent="5C9xvMvv8BL5N6FmCVYK-144" edge="1">
          <mxGeometry width="50" height="50" relative="1" as="geometry">
            <mxPoint y="39" as="sourcePoint" />
            <mxPoint x="140" y="39" as="targetPoint" />
          </mxGeometry>
        </mxCell>
        <mxCell id="5C9xvMvv8BL5N6FmCVYK-148" value="" style="endArrow=none;html=1;rounded=0;entryX=0;entryY=0.75;entryDx=0;entryDy=0;movable=1;resizable=1;rotatable=1;deletable=1;editable=1;locked=0;connectable=1;" parent="1" target="5C9xvMvv8BL5N6FmCVYK-114" edge="1">
          <mxGeometry width="50" height="50" relative="1" as="geometry">
            <mxPoint x="230" y="2090" as="sourcePoint" />
            <mxPoint x="260" y="2140" as="targetPoint" />
            <Array as="points">
              <mxPoint x="270" y="2090" />
              <mxPoint x="270" y="2050" />
            </Array>
          </mxGeometry>
        </mxCell>
        <mxCell id="5C9xvMvv8BL5N6FmCVYK-149" value="" style="group;strokeColor=default;dashed=1;movable=1;resizable=1;rotatable=1;deletable=1;editable=1;locked=0;connectable=1;" parent="1" vertex="1" connectable="0">
          <mxGeometry x="90" y="2831" width="140" height="70" as="geometry" />
        </mxCell>
        <mxCell id="5C9xvMvv8BL5N6FmCVYK-150" value="→[0 : 0]&lt;span style=&quot;&quot;&gt;&amp;nbsp;&lt;span style=&quot;&quot;&gt;&amp;nbsp;sys_&lt;/span&gt;clk&lt;/span&gt;&lt;br&gt;→[0 : 0]&amp;nbsp; sys_rst" style="text;html=1;strokeColor=none;fillColor=none;align=left;verticalAlign=middle;whiteSpace=wrap;rounded=0;movable=1;resizable=1;rotatable=1;deletable=1;editable=1;locked=0;connectable=1;container=0;" parent="5C9xvMvv8BL5N6FmCVYK-149" vertex="1">
          <mxGeometry x="23.75" width="92.5" height="40" as="geometry" />
        </mxCell>
        <mxCell id="5C9xvMvv8BL5N6FmCVYK-151" value="&lt;b&gt;UART TX System Signals&lt;/b&gt;" style="text;html=1;strokeColor=none;fillColor=none;align=center;verticalAlign=middle;whiteSpace=wrap;rounded=0;movable=1;resizable=1;rotatable=1;deletable=1;editable=1;locked=0;connectable=1;container=0;" parent="5C9xvMvv8BL5N6FmCVYK-149" vertex="1">
          <mxGeometry x="17.5" y="40" width="105" height="30" as="geometry" />
        </mxCell>
        <mxCell id="5C9xvMvv8BL5N6FmCVYK-152" value="" style="endArrow=none;startArrow=none;html=1;rounded=0;startFill=0;endFill=0;movable=1;resizable=1;rotatable=1;deletable=1;editable=1;locked=0;connectable=1;" parent="5C9xvMvv8BL5N6FmCVYK-149" edge="1">
          <mxGeometry width="50" height="50" relative="1" as="geometry">
            <mxPoint y="39" as="sourcePoint" />
            <mxPoint x="140" y="39" as="targetPoint" />
          </mxGeometry>
        </mxCell>
        <mxCell id="5C9xvMvv8BL5N6FmCVYK-153" value="" style="endArrow=none;html=1;rounded=0;entryX=0;entryY=0.25;entryDx=0;entryDy=0;movable=1;resizable=1;rotatable=1;deletable=1;editable=1;locked=0;connectable=1;" parent="1" target="5C9xvMvv8BL5N6FmCVYK-22" edge="1">
          <mxGeometry width="50" height="50" relative="1" as="geometry">
            <mxPoint x="230" y="2870" as="sourcePoint" />
            <mxPoint x="270" y="2820" as="targetPoint" />
            <Array as="points">
              <mxPoint x="270" y="2870" />
              <mxPoint x="270" y="2910" />
            </Array>
          </mxGeometry>
        </mxCell>
        <mxCell id="5C9xvMvv8BL5N6FmCVYK-154" value="" style="endArrow=none;html=1;rounded=0;entryX=0;entryY=0.25;entryDx=0;entryDy=0;movable=1;resizable=1;rotatable=1;deletable=1;editable=1;locked=0;connectable=1;" parent="1" target="5C9xvMvv8BL5N6FmCVYK-114" edge="1">
          <mxGeometry width="50" height="50" relative="1" as="geometry">
            <mxPoint x="-30" y="1990" as="sourcePoint" />
            <mxPoint x="300.0000000000001" y="1988.81" as="targetPoint" />
          </mxGeometry>
        </mxCell>
        <mxCell id="5C9xvMvv8BL5N6FmCVYK-155" value="←[0 : 0]&lt;span style=&quot;border-color: var(--border-color); text-align: left;&quot;&gt;&amp;nbsp;&lt;span style=&quot;border-color: var(--border-color);&quot;&gt; &lt;/span&gt;uart_txd&lt;/span&gt;" style="text;html=1;strokeColor=none;fillColor=none;align=center;verticalAlign=middle;whiteSpace=wrap;rounded=0;movable=1;resizable=1;rotatable=1;deletable=1;editable=1;locked=0;connectable=1;" parent="1" vertex="1">
          <mxGeometry x="-30" y="1970" width="110" height="20" as="geometry" />
        </mxCell>
        <mxCell id="5C9xvMvv8BL5N6FmCVYK-161" value="" style="endArrow=none;html=1;rounded=0;entryX=1;entryY=0.75;entryDx=0;entryDy=0;" parent="1" target="5C9xvMvv8BL5N6FmCVYK-130" edge="1">
          <mxGeometry width="50" height="50" relative="1" as="geometry">
            <mxPoint x="1430" y="2490" as="sourcePoint" />
            <mxPoint x="650" y="2470" as="targetPoint" />
          </mxGeometry>
        </mxCell>
        <mxCell id="5C9xvMvv8BL5N6FmCVYK-162" value="" style="group;dashed=1;strokeColor=default;" parent="1" vertex="1" connectable="0">
          <mxGeometry x="1430" y="2420" width="200" height="90" as="geometry" />
        </mxCell>
        <mxCell id="5C9xvMvv8BL5N6FmCVYK-19" value="&lt;b&gt;UART Interface&amp;nbsp;&lt;/b&gt;" style="text;html=1;strokeColor=none;fillColor=none;align=center;verticalAlign=middle;whiteSpace=wrap;rounded=0;movable=1;resizable=1;rotatable=1;deletable=1;editable=1;locked=0;connectable=1;container=0;" parent="5C9xvMvv8BL5N6FmCVYK-162" vertex="1">
          <mxGeometry x="48.75" y="70" width="102.5" height="20" as="geometry" />
        </mxCell>
        <mxCell id="5C9xvMvv8BL5N6FmCVYK-20" value="" style="endArrow=none;startArrow=none;html=1;rounded=0;startFill=0;endFill=0;movable=1;resizable=1;rotatable=1;deletable=1;editable=1;locked=0;connectable=1;" parent="5C9xvMvv8BL5N6FmCVYK-162" edge="1">
          <mxGeometry width="50" height="50" relative="1" as="geometry">
            <mxPoint y="70" as="sourcePoint" />
            <mxPoint x="200" y="70" as="targetPoint" />
          </mxGeometry>
        </mxCell>
        <mxCell id="5C9xvMvv8BL5N6FmCVYK-21" value="←[31:0]&lt;span style=&quot;&quot;&gt;&amp;nbsp;uart_&lt;/span&gt;interface_addr&lt;br&gt;→[31:0] uart_interface_rdata&lt;br&gt;←[31:0] uart_interface_wdata&lt;br&gt;←[0 : 0] uart_interface_we" style="text;html=1;strokeColor=none;fillColor=none;align=left;verticalAlign=middle;whiteSpace=wrap;rounded=0;movable=1;resizable=1;rotatable=1;deletable=1;editable=1;locked=0;connectable=1;container=0;" parent="5C9xvMvv8BL5N6FmCVYK-162" vertex="1">
          <mxGeometry x="17.5" y="4" width="162.5" height="60" as="geometry" />
        </mxCell>
        <mxCell id="5C9xvMvv8BL5N6FmCVYK-164" value="" style="endArrow=none;html=1;rounded=0;" parent="1" edge="1">
          <mxGeometry width="50" height="50" relative="1" as="geometry">
            <mxPoint x="1680" y="2489.83" as="sourcePoint" />
            <mxPoint x="1630" y="2490" as="targetPoint" />
          </mxGeometry>
        </mxCell>
        <mxCell id="5C9xvMvv8BL5N6FmCVYK-166" value="←[0 : 0]&amp;nbsp;uart_txd&lt;br&gt;→[0 : 0]&amp;nbsp;uart_rxd&lt;span style=&quot;border-color: var(--border-color); text-align: left;&quot;&gt;&lt;/span&gt;&lt;br&gt;&lt;span style=&quot;border-color: var(--border-color); text-align: left;&quot;&gt;&lt;/span&gt;" style="rounded=0;whiteSpace=wrap;html=1;fontStyle=1" parent="1" vertex="1">
          <mxGeometry x="-240" y="2460" width="120" height="40" as="geometry" />
        </mxCell>
        <mxCell id="5C9xvMvv8BL5N6FmCVYK-167" value="" style="endArrow=none;html=1;rounded=0;entryX=0;entryY=1;entryDx=0;entryDy=0;" parent="1" target="5C9xvMvv8BL5N6FmCVYK-28" edge="1">
          <mxGeometry width="50" height="50" relative="1" as="geometry">
            <mxPoint x="-120" y="2480" as="sourcePoint" />
            <mxPoint x="-60" y="2970" as="targetPoint" />
            <Array as="points">
              <mxPoint x="-70" y="2480" />
              <mxPoint x="-70" y="2970" />
            </Array>
          </mxGeometry>
        </mxCell>
        <mxCell id="5C9xvMvv8BL5N6FmCVYK-168" value="" style="endArrow=none;html=1;rounded=0;" parent="1" edge="1">
          <mxGeometry width="50" height="50" relative="1" as="geometry">
            <mxPoint x="-70" y="2480" as="sourcePoint" />
            <mxPoint x="-30" y="1990" as="targetPoint" />
            <Array as="points">
              <mxPoint x="-70" y="1990" />
            </Array>
          </mxGeometry>
        </mxCell>
        <mxCell id="5C9xvMvv8BL5N6FmCVYK-170" value="" style="shape=waypoint;sketch=0;size=6;pointerEvents=1;points=[];fillColor=none;resizable=0;rotatable=0;perimeter=centerPerimeter;snapToPoint=1;" parent="1" vertex="1">
          <mxGeometry x="-80" y="2470" width="20" height="20" as="geometry" />
        </mxCell>
        <mxCell id="5C9xvMvv8BL5N6FmCVYK-171" value="PDU_UART" style="text;html=1;strokeColor=none;fillColor=none;align=center;verticalAlign=middle;whiteSpace=wrap;rounded=0;fontStyle=1;fontSize=29;movable=0;resizable=0;rotatable=0;deletable=0;editable=0;locked=1;connectable=0;" parent="1" vertex="1">
          <mxGeometry x="1200" y="3030" width="180" height="30" as="geometry" />
        </mxCell>
        <mxCell id="5C9xvMvv8BL5N6FmCVYK-173" value="PDU_CPU" style="text;html=1;strokeColor=none;fillColor=none;align=center;verticalAlign=middle;whiteSpace=wrap;rounded=0;fontStyle=1;fontSize=29;movable=0;resizable=0;rotatable=0;deletable=0;editable=0;locked=1;connectable=0;" parent="1" vertex="1">
          <mxGeometry x="2400" y="3050" width="180" height="30" as="geometry" />
        </mxCell>
        <mxCell id="YqvV55Ca0vxh03pGGtgA-5" value="" style="group;dashed=1;strokeColor=default;" vertex="1" connectable="0" parent="1">
          <mxGeometry x="1960" y="1228" width="200" height="52" as="geometry" />
        </mxCell>
        <mxCell id="YqvV55Ca0vxh03pGGtgA-2" value="&lt;b&gt;P-IMEM Interface&lt;/b&gt;" style="text;html=1;strokeColor=none;fillColor=none;align=center;verticalAlign=middle;whiteSpace=wrap;rounded=0;movable=1;resizable=1;rotatable=1;deletable=1;editable=1;locked=0;connectable=1;container=0;" vertex="1" parent="YqvV55Ca0vxh03pGGtgA-5">
          <mxGeometry x="20" y="32" width="160" height="20" as="geometry" />
        </mxCell>
        <mxCell id="YqvV55Ca0vxh03pGGtgA-3" value="" style="endArrow=none;startArrow=none;html=1;rounded=0;startFill=0;endFill=0;movable=1;resizable=1;rotatable=1;deletable=1;editable=1;locked=0;connectable=1;" edge="1" parent="YqvV55Ca0vxh03pGGtgA-5">
          <mxGeometry width="50" height="50" relative="1" as="geometry">
            <mxPoint y="32" as="sourcePoint" />
            <mxPoint x="200" y="32" as="targetPoint" />
          </mxGeometry>
        </mxCell>
        <mxCell id="YqvV55Ca0vxh03pGGtgA-4" value="→[31:0]&lt;span style=&quot;&quot;&gt;&amp;nbsp;imem_&lt;/span&gt;interface_addr&lt;br&gt;←[31:0] imem_interface_data" style="text;html=1;strokeColor=none;fillColor=none;align=left;verticalAlign=middle;whiteSpace=wrap;rounded=0;movable=1;resizable=1;rotatable=1;deletable=1;editable=1;locked=0;connectable=1;container=0;" vertex="1" parent="YqvV55Ca0vxh03pGGtgA-5">
          <mxGeometry x="20" width="162.5" height="30" as="geometry" />
        </mxCell>
        <mxCell id="YqvV55Ca0vxh03pGGtgA-6" value="PDU&lt;br style=&quot;font-size: 18px;&quot;&gt;IMEM" style="rounded=0;whiteSpace=wrap;html=1;fontStyle=1;fontSize=18;" vertex="1" parent="1">
          <mxGeometry x="2470" y="1160" width="80" height="120" as="geometry" />
        </mxCell>
        <mxCell id="YqvV55Ca0vxh03pGGtgA-8" value="" style="group;dashed=1;strokeColor=default;" vertex="1" connectable="0" parent="1">
          <mxGeometry x="2240" y="1228" width="200" height="52" as="geometry" />
        </mxCell>
        <mxCell id="YqvV55Ca0vxh03pGGtgA-9" value="&lt;b&gt;P-IMEM Interface&lt;/b&gt;" style="text;html=1;strokeColor=none;fillColor=none;align=center;verticalAlign=middle;whiteSpace=wrap;rounded=0;movable=1;resizable=1;rotatable=1;deletable=1;editable=1;locked=0;connectable=1;container=0;" vertex="1" parent="YqvV55Ca0vxh03pGGtgA-8">
          <mxGeometry x="20" y="32" width="160" height="20" as="geometry" />
        </mxCell>
        <mxCell id="YqvV55Ca0vxh03pGGtgA-10" value="" style="endArrow=none;startArrow=none;html=1;rounded=0;startFill=0;endFill=0;movable=1;resizable=1;rotatable=1;deletable=1;editable=1;locked=0;connectable=1;" edge="1" parent="YqvV55Ca0vxh03pGGtgA-8">
          <mxGeometry width="50" height="50" relative="1" as="geometry">
            <mxPoint y="32" as="sourcePoint" />
            <mxPoint x="200" y="32" as="targetPoint" />
          </mxGeometry>
        </mxCell>
        <mxCell id="YqvV55Ca0vxh03pGGtgA-11" value="→[31:0]&lt;span style=&quot;&quot;&gt;&amp;nbsp;imem_&lt;/span&gt;interface_addr&lt;br&gt;←[31:0] imem_interface_data" style="text;html=1;strokeColor=none;fillColor=none;align=left;verticalAlign=middle;whiteSpace=wrap;rounded=0;movable=1;resizable=1;rotatable=1;deletable=1;editable=1;locked=0;connectable=1;container=0;" vertex="1" parent="YqvV55Ca0vxh03pGGtgA-8">
          <mxGeometry x="20" width="162.5" height="30" as="geometry" />
        </mxCell>
        <mxCell id="YqvV55Ca0vxh03pGGtgA-12" value="" style="endArrow=none;html=1;rounded=0;entryX=0;entryY=0.167;entryDx=0;entryDy=0;entryPerimeter=0;" edge="1" parent="1" target="YqvV55Ca0vxh03pGGtgA-6">
          <mxGeometry width="50" height="50" relative="1" as="geometry">
            <mxPoint x="2240" y="1180" as="sourcePoint" />
            <mxPoint x="2370" y="1140" as="targetPoint" />
          </mxGeometry>
        </mxCell>
        <mxCell id="YqvV55Ca0vxh03pGGtgA-13" value="→[0 : 0] sys_clk" style="text;html=1;strokeColor=none;fillColor=none;align=center;verticalAlign=middle;whiteSpace=wrap;rounded=0;" vertex="1" parent="1">
          <mxGeometry x="2230" y="1160" width="100" height="20" as="geometry" />
        </mxCell>
        <mxCell id="YqvV55Ca0vxh03pGGtgA-14" value="" style="endArrow=none;html=1;rounded=0;entryX=0;entryY=0.833;entryDx=0;entryDy=0;entryPerimeter=0;" edge="1" parent="1" target="YqvV55Ca0vxh03pGGtgA-6">
          <mxGeometry width="50" height="50" relative="1" as="geometry">
            <mxPoint x="2440" y="1260" as="sourcePoint" />
            <mxPoint x="2370" y="1310" as="targetPoint" />
          </mxGeometry>
        </mxCell>
        <mxCell id="YqvV55Ca0vxh03pGGtgA-15" value="" style="endArrow=none;html=1;rounded=0;" edge="1" parent="1">
          <mxGeometry width="50" height="50" relative="1" as="geometry">
            <mxPoint x="2160" y="1260" as="sourcePoint" />
            <mxPoint x="2240" y="1260" as="targetPoint" />
          </mxGeometry>
        </mxCell>
        <mxCell id="YqvV55Ca0vxh03pGGtgA-16" value="" style="endArrow=none;html=1;rounded=0;exitX=1;exitY=0.088;exitDx=0;exitDy=0;exitPerimeter=0;" edge="1" parent="1" source="SzN8-PFb_mEgps3vLhe2-123">
          <mxGeometry width="50" height="50" relative="1" as="geometry">
            <mxPoint x="1930" y="1260" as="sourcePoint" />
            <mxPoint x="1960" y="1260" as="targetPoint" />
          </mxGeometry>
        </mxCell>
        <mxCell id="YqvV55Ca0vxh03pGGtgA-17" value="PDU&lt;br style=&quot;font-size: 18px;&quot;&gt;DMEM" style="rounded=0;whiteSpace=wrap;html=1;fontStyle=1;fontSize=18;" vertex="1" parent="1">
          <mxGeometry x="2470" y="1370" width="80" height="120" as="geometry" />
        </mxCell>
        <mxCell id="YqvV55Ca0vxh03pGGtgA-18" value="" style="group;strokeColor=default;dashed=1;" vertex="1" connectable="0" parent="1">
          <mxGeometry x="1960" y="1330" width="200" height="80" as="geometry" />
        </mxCell>
        <mxCell id="YqvV55Ca0vxh03pGGtgA-19" value="&lt;b&gt;P-DMEM Interface&lt;/b&gt;" style="text;html=1;strokeColor=none;fillColor=none;align=center;verticalAlign=middle;whiteSpace=wrap;rounded=0;movable=1;resizable=1;rotatable=1;deletable=1;editable=1;locked=0;connectable=1;container=0;" vertex="1" parent="YqvV55Ca0vxh03pGGtgA-18">
          <mxGeometry x="20" y="60" width="160" height="20" as="geometry" />
        </mxCell>
        <mxCell id="YqvV55Ca0vxh03pGGtgA-20" value="" style="endArrow=none;startArrow=none;html=1;rounded=0;startFill=0;endFill=0;movable=1;resizable=1;rotatable=1;deletable=1;editable=1;locked=0;connectable=1;" edge="1" parent="YqvV55Ca0vxh03pGGtgA-18">
          <mxGeometry width="50" height="50" relative="1" as="geometry">
            <mxPoint y="60" as="sourcePoint" />
            <mxPoint x="200" y="60" as="targetPoint" />
          </mxGeometry>
        </mxCell>
        <mxCell id="YqvV55Ca0vxh03pGGtgA-21" value="→[31:0]&lt;span style=&quot;&quot;&gt;&amp;nbsp;dmem_&lt;/span&gt;interface_addr&lt;br&gt;←[31:0] dmem_interface_rdata&lt;br&gt;→[31:0]&amp;nbsp;dmem_interface_wdata&lt;br&gt;→[0 : 0]&amp;nbsp;dmem_interface_we" style="text;html=1;strokeColor=none;fillColor=none;align=left;verticalAlign=middle;whiteSpace=wrap;rounded=0;movable=1;resizable=1;rotatable=1;deletable=1;editable=1;locked=0;connectable=1;container=0;" vertex="1" parent="YqvV55Ca0vxh03pGGtgA-18">
          <mxGeometry x="20" width="170" height="60" as="geometry" />
        </mxCell>
        <mxCell id="YqvV55Ca0vxh03pGGtgA-22" value="" style="endArrow=none;html=1;rounded=0;" edge="1" parent="1">
          <mxGeometry width="50" height="50" relative="1" as="geometry">
            <mxPoint x="1920" y="1390" as="sourcePoint" />
            <mxPoint x="1960" y="1390" as="targetPoint" />
          </mxGeometry>
        </mxCell>
        <mxCell id="YqvV55Ca0vxh03pGGtgA-23" value="" style="group;strokeColor=default;dashed=1;" vertex="1" connectable="0" parent="1">
          <mxGeometry x="2239" y="1330" width="200" height="80" as="geometry" />
        </mxCell>
        <mxCell id="YqvV55Ca0vxh03pGGtgA-24" value="&lt;b&gt;P-DMEM Interface&lt;/b&gt;" style="text;html=1;strokeColor=none;fillColor=none;align=center;verticalAlign=middle;whiteSpace=wrap;rounded=0;movable=1;resizable=1;rotatable=1;deletable=1;editable=1;locked=0;connectable=1;container=0;" vertex="1" parent="YqvV55Ca0vxh03pGGtgA-23">
          <mxGeometry x="20" y="60" width="160" height="20" as="geometry" />
        </mxCell>
        <mxCell id="YqvV55Ca0vxh03pGGtgA-25" value="" style="endArrow=none;startArrow=none;html=1;rounded=0;startFill=0;endFill=0;movable=1;resizable=1;rotatable=1;deletable=1;editable=1;locked=0;connectable=1;" edge="1" parent="YqvV55Ca0vxh03pGGtgA-23">
          <mxGeometry width="50" height="50" relative="1" as="geometry">
            <mxPoint y="60" as="sourcePoint" />
            <mxPoint x="200" y="60" as="targetPoint" />
          </mxGeometry>
        </mxCell>
        <mxCell id="YqvV55Ca0vxh03pGGtgA-26" value="→[31:0]&lt;span style=&quot;&quot;&gt;&amp;nbsp;dmem_&lt;/span&gt;interface_addr&lt;br&gt;←[31:0] dmem_interface_rdata&lt;br&gt;→[31:0]&amp;nbsp;dmem_interface_wdata&lt;br&gt;→[0 : 0]&amp;nbsp;dmem_interface_we" style="text;html=1;strokeColor=none;fillColor=none;align=left;verticalAlign=middle;whiteSpace=wrap;rounded=0;movable=1;resizable=1;rotatable=1;deletable=1;editable=1;locked=0;connectable=1;container=0;" vertex="1" parent="YqvV55Ca0vxh03pGGtgA-23">
          <mxGeometry x="20" width="170" height="60" as="geometry" />
        </mxCell>
        <mxCell id="YqvV55Ca0vxh03pGGtgA-27" value="" style="endArrow=none;html=1;rounded=0;entryX=0;entryY=0.833;entryDx=0;entryDy=0;entryPerimeter=0;" edge="1" parent="1">
          <mxGeometry width="50" height="50" relative="1" as="geometry">
            <mxPoint x="2440" y="1390" as="sourcePoint" />
            <mxPoint x="2470" y="1390" as="targetPoint" />
          </mxGeometry>
        </mxCell>
        <mxCell id="YqvV55Ca0vxh03pGGtgA-28" value="" style="endArrow=none;html=1;rounded=0;" edge="1" parent="1">
          <mxGeometry width="50" height="50" relative="1" as="geometry">
            <mxPoint x="2159" y="1390" as="sourcePoint" />
            <mxPoint x="2239" y="1390" as="targetPoint" />
          </mxGeometry>
        </mxCell>
        <mxCell id="YqvV55Ca0vxh03pGGtgA-29" value="" style="endArrow=none;html=1;rounded=0;entryX=0;entryY=0.167;entryDx=0;entryDy=0;entryPerimeter=0;" edge="1" parent="1">
          <mxGeometry width="50" height="50" relative="1" as="geometry">
            <mxPoint x="2240" y="1470" as="sourcePoint" />
            <mxPoint x="2470" y="1470" as="targetPoint" />
          </mxGeometry>
        </mxCell>
        <mxCell id="YqvV55Ca0vxh03pGGtgA-30" value="→[0 : 0] sys_clk" style="text;html=1;strokeColor=none;fillColor=none;align=center;verticalAlign=middle;whiteSpace=wrap;rounded=0;" vertex="1" parent="1">
          <mxGeometry x="2230" y="1450" width="100" height="20" as="geometry" />
        </mxCell>
        <mxCell id="YqvV55Ca0vxh03pGGtgA-31" value="PDU&lt;br style=&quot;font-size: 18px;&quot;&gt;KERNEL" style="rounded=0;whiteSpace=wrap;html=1;fontStyle=1;fontSize=18;" vertex="1" parent="1">
          <mxGeometry x="1080" y="1200" width="80" height="240" as="geometry" />
        </mxCell>
        <mxCell id="YqvV55Ca0vxh03pGGtgA-32" value="" style="group;dashed=1;strokeColor=default;" vertex="1" connectable="0" parent="1">
          <mxGeometry x="1200" y="1228" width="200" height="52" as="geometry" />
        </mxCell>
        <mxCell id="YqvV55Ca0vxh03pGGtgA-33" value="&lt;b&gt;PKernel P-IMEM Ports&lt;/b&gt;" style="text;html=1;strokeColor=none;fillColor=none;align=center;verticalAlign=middle;whiteSpace=wrap;rounded=0;movable=1;resizable=1;rotatable=1;deletable=1;editable=1;locked=0;connectable=1;container=0;" vertex="1" parent="YqvV55Ca0vxh03pGGtgA-32">
          <mxGeometry x="20" y="32" width="160" height="20" as="geometry" />
        </mxCell>
        <mxCell id="YqvV55Ca0vxh03pGGtgA-34" value="" style="endArrow=none;startArrow=none;html=1;rounded=0;startFill=0;endFill=0;movable=1;resizable=1;rotatable=1;deletable=1;editable=1;locked=0;connectable=1;" edge="1" parent="YqvV55Ca0vxh03pGGtgA-32">
          <mxGeometry width="50" height="50" relative="1" as="geometry">
            <mxPoint y="32" as="sourcePoint" />
            <mxPoint x="200" y="32" as="targetPoint" />
          </mxGeometry>
        </mxCell>
        <mxCell id="YqvV55Ca0vxh03pGGtgA-35" value="→[31:0]&lt;span style=&quot;&quot;&gt;&amp;nbsp;imem&lt;/span&gt;_addr&lt;br&gt;←[31:0] imem_data" style="text;html=1;strokeColor=none;fillColor=none;align=left;verticalAlign=middle;whiteSpace=wrap;rounded=0;movable=1;resizable=1;rotatable=1;deletable=1;editable=1;locked=0;connectable=1;container=0;" vertex="1" parent="YqvV55Ca0vxh03pGGtgA-32">
          <mxGeometry x="45" width="110" height="30" as="geometry" />
        </mxCell>
        <mxCell id="YqvV55Ca0vxh03pGGtgA-36" value="" style="group;strokeColor=default;dashed=1;" vertex="1" connectable="0" parent="1">
          <mxGeometry x="1200" y="1330" width="200" height="80" as="geometry" />
        </mxCell>
        <mxCell id="YqvV55Ca0vxh03pGGtgA-37" value="&lt;b&gt;PKernel P-DMEM Ports&lt;/b&gt;" style="text;html=1;strokeColor=none;fillColor=none;align=center;verticalAlign=middle;whiteSpace=wrap;rounded=0;movable=1;resizable=1;rotatable=1;deletable=1;editable=1;locked=0;connectable=1;container=0;" vertex="1" parent="YqvV55Ca0vxh03pGGtgA-36">
          <mxGeometry x="20" y="60" width="160" height="20" as="geometry" />
        </mxCell>
        <mxCell id="YqvV55Ca0vxh03pGGtgA-38" value="" style="endArrow=none;startArrow=none;html=1;rounded=0;startFill=0;endFill=0;movable=1;resizable=1;rotatable=1;deletable=1;editable=1;locked=0;connectable=1;" edge="1" parent="YqvV55Ca0vxh03pGGtgA-36">
          <mxGeometry width="50" height="50" relative="1" as="geometry">
            <mxPoint y="60" as="sourcePoint" />
            <mxPoint x="200" y="60" as="targetPoint" />
          </mxGeometry>
        </mxCell>
        <mxCell id="YqvV55Ca0vxh03pGGtgA-39" value="→[31:0]&lt;span style=&quot;&quot;&gt;&amp;nbsp;dmem&lt;/span&gt;_addr&lt;br&gt;←[31:0] dmem_rdata&lt;br&gt;→[31:0]&amp;nbsp;dmem_wdata&lt;br&gt;→[0 : 0]&amp;nbsp;dmem_we" style="text;html=1;strokeColor=none;fillColor=none;align=left;verticalAlign=middle;whiteSpace=wrap;rounded=0;movable=1;resizable=1;rotatable=1;deletable=1;editable=1;locked=0;connectable=1;container=0;" vertex="1" parent="YqvV55Ca0vxh03pGGtgA-36">
          <mxGeometry x="20" width="170" height="60" as="geometry" />
        </mxCell>
        <mxCell id="YqvV55Ca0vxh03pGGtgA-40" value="" style="group;dashed=1;strokeColor=default;" vertex="1" connectable="0" parent="1">
          <mxGeometry x="1440" y="1228" width="200" height="52" as="geometry" />
        </mxCell>
        <mxCell id="YqvV55Ca0vxh03pGGtgA-41" value="&lt;b&gt;PKernel P-IMEM Ports&lt;/b&gt;" style="text;html=1;strokeColor=none;fillColor=none;align=center;verticalAlign=middle;whiteSpace=wrap;rounded=0;movable=1;resizable=1;rotatable=1;deletable=1;editable=1;locked=0;connectable=1;container=0;" vertex="1" parent="YqvV55Ca0vxh03pGGtgA-40">
          <mxGeometry x="20" y="32" width="160" height="20" as="geometry" />
        </mxCell>
        <mxCell id="YqvV55Ca0vxh03pGGtgA-42" value="" style="endArrow=none;startArrow=none;html=1;rounded=0;startFill=0;endFill=0;movable=1;resizable=1;rotatable=1;deletable=1;editable=1;locked=0;connectable=1;" edge="1" parent="YqvV55Ca0vxh03pGGtgA-40">
          <mxGeometry width="50" height="50" relative="1" as="geometry">
            <mxPoint y="32" as="sourcePoint" />
            <mxPoint x="199.99999999999997" y="32" as="targetPoint" />
          </mxGeometry>
        </mxCell>
        <mxCell id="YqvV55Ca0vxh03pGGtgA-43" value="→[31:0]&lt;span style=&quot;&quot;&gt;&amp;nbsp;pdu&lt;/span&gt;_iaddr&lt;br&gt;←[31:0] pdu_idata" style="text;html=1;strokeColor=none;fillColor=none;align=left;verticalAlign=middle;whiteSpace=wrap;rounded=0;movable=1;resizable=1;rotatable=1;deletable=1;editable=1;locked=0;connectable=1;container=0;" vertex="1" parent="YqvV55Ca0vxh03pGGtgA-40">
          <mxGeometry x="44.99999999999999" width="109.99999999999999" height="30" as="geometry" />
        </mxCell>
        <mxCell id="YqvV55Ca0vxh03pGGtgA-44" value="" style="group;strokeColor=default;dashed=1;" vertex="1" connectable="0" parent="1">
          <mxGeometry x="1440" y="1330" width="200" height="80" as="geometry" />
        </mxCell>
        <mxCell id="YqvV55Ca0vxh03pGGtgA-45" value="&lt;b&gt;PKernel P-DMEM Ports&lt;/b&gt;" style="text;html=1;strokeColor=none;fillColor=none;align=center;verticalAlign=middle;whiteSpace=wrap;rounded=0;movable=1;resizable=1;rotatable=1;deletable=1;editable=1;locked=0;connectable=1;container=0;" vertex="1" parent="YqvV55Ca0vxh03pGGtgA-44">
          <mxGeometry x="20" y="60" width="160" height="20" as="geometry" />
        </mxCell>
        <mxCell id="YqvV55Ca0vxh03pGGtgA-46" value="" style="endArrow=none;startArrow=none;html=1;rounded=0;startFill=0;endFill=0;movable=1;resizable=1;rotatable=1;deletable=1;editable=1;locked=0;connectable=1;" edge="1" parent="YqvV55Ca0vxh03pGGtgA-44">
          <mxGeometry width="50" height="50" relative="1" as="geometry">
            <mxPoint y="60" as="sourcePoint" />
            <mxPoint x="199.99999999999997" y="60" as="targetPoint" />
          </mxGeometry>
        </mxCell>
        <mxCell id="YqvV55Ca0vxh03pGGtgA-47" value="→[31:0]&lt;span style=&quot;&quot;&gt;&amp;nbsp;pdu&lt;/span&gt;_daddr&lt;br&gt;←[31:0] pdu_drdata&lt;br&gt;→[31:0]&amp;nbsp;pdu_dwdata&lt;br&gt;→[0 : 0] pdu_dwe" style="text;html=1;strokeColor=none;fillColor=none;align=left;verticalAlign=middle;whiteSpace=wrap;rounded=0;movable=1;resizable=1;rotatable=1;deletable=1;editable=1;locked=0;connectable=1;container=0;" vertex="1" parent="YqvV55Ca0vxh03pGGtgA-44">
          <mxGeometry x="40" width="120" height="60" as="geometry" />
        </mxCell>
        <mxCell id="YqvV55Ca0vxh03pGGtgA-48" value="" style="endArrow=none;html=1;rounded=0;" edge="1" parent="1">
          <mxGeometry width="50" height="50" relative="1" as="geometry">
            <mxPoint x="1640" y="1260" as="sourcePoint" />
            <mxPoint x="1680" y="1260" as="targetPoint" />
          </mxGeometry>
        </mxCell>
        <mxCell id="YqvV55Ca0vxh03pGGtgA-49" value="" style="endArrow=none;html=1;rounded=0;" edge="1" parent="1">
          <mxGeometry width="50" height="50" relative="1" as="geometry">
            <mxPoint x="1640" y="1390" as="sourcePoint" />
            <mxPoint x="1680" y="1390" as="targetPoint" />
          </mxGeometry>
        </mxCell>
        <mxCell id="YqvV55Ca0vxh03pGGtgA-50" value="" style="endArrow=none;html=1;rounded=0;" edge="1" parent="1">
          <mxGeometry width="50" height="50" relative="1" as="geometry">
            <mxPoint x="1400" y="1260" as="sourcePoint" />
            <mxPoint x="1440" y="1260" as="targetPoint" />
          </mxGeometry>
        </mxCell>
        <mxCell id="YqvV55Ca0vxh03pGGtgA-51" value="" style="endArrow=none;html=1;rounded=0;" edge="1" parent="1">
          <mxGeometry width="50" height="50" relative="1" as="geometry">
            <mxPoint x="1400" y="1390" as="sourcePoint" />
            <mxPoint x="1440" y="1390" as="targetPoint" />
          </mxGeometry>
        </mxCell>
        <mxCell id="YqvV55Ca0vxh03pGGtgA-52" value="" style="endArrow=none;html=1;rounded=0;exitX=1;exitY=0.25;exitDx=0;exitDy=0;" edge="1" parent="1" source="YqvV55Ca0vxh03pGGtgA-31">
          <mxGeometry width="50" height="50" relative="1" as="geometry">
            <mxPoint x="1170" y="1240" as="sourcePoint" />
            <mxPoint x="1200" y="1260" as="targetPoint" />
          </mxGeometry>
        </mxCell>
        <mxCell id="YqvV55Ca0vxh03pGGtgA-53" value="" style="endArrow=none;html=1;rounded=0;exitX=1;exitY=0.25;exitDx=0;exitDy=0;" edge="1" parent="1">
          <mxGeometry width="50" height="50" relative="1" as="geometry">
            <mxPoint x="1160" y="1390" as="sourcePoint" />
            <mxPoint x="1200" y="1390" as="targetPoint" />
          </mxGeometry>
        </mxCell>
        <mxCell id="YqvV55Ca0vxh03pGGtgA-54" value="" style="endArrow=none;html=1;rounded=0;entryX=0;entryY=0.5;entryDx=0;entryDy=0;" edge="1" parent="1" target="YqvV55Ca0vxh03pGGtgA-31">
          <mxGeometry width="50" height="50" relative="1" as="geometry">
            <mxPoint x="1040" y="1320" as="sourcePoint" />
            <mxPoint x="1040" y="1390" as="targetPoint" />
          </mxGeometry>
        </mxCell>
      </root>
    </mxGraphModel>
  </diagram>
</mxfile>
